<svg width="157" height="14" viewBox="0 0 157 14" fill="none" xmlns="http://www.w3.org/2000/svg">
<path d="M84.7373 5.18953C84.7373 5.06809 84.6355 4.97014 84.514 4.97798C84.0282 5.00344 83.5581 5.11118 83.1115 5.29923C82.9528 5.36779 82.7981 5.44418 82.6492 5.53037C82.5826 5.56759 82.5435 5.6381 82.5435 5.7145V8.19632C82.5435 8.27272 82.5846 8.34323 82.6492 8.38045C82.7981 8.46664 82.9528 8.54303 83.1115 8.61159C83.5581 8.79964 84.0282 8.90738 84.514 8.93284C84.6355 8.93872 84.7373 8.84273 84.7373 8.72128V5.19148V5.18953Z" fill="url(#paint0_linear_7539_18004)"/>
<path d="M84.7368 5.18953C84.7368 5.06809 84.6349 4.97014 84.5135 4.97798C84.0277 5.00344 83.9219 5.11118 83.4753 5.29923C83.3166 5.36779 83.1619 5.44418 83.013 5.53037C82.9464 5.56759 82.9072 5.6381 82.9072 5.7145V8.19632C82.9072 8.27272 82.9484 8.34323 83.013 8.38045C83.1619 8.46664 83.3166 8.54303 83.4753 8.61159C83.9219 8.79964 84.0277 8.90738 84.5135 8.93284C84.6349 8.93872 84.7368 8.84273 84.7368 8.72128V5.19148V5.18953Z" fill="url(#paint1_linear_7539_18004)"/>
<mask id="mask0_7539_18004" style="mask-type:luminance" maskUnits="userSpaceOnUse" x="84" y="0" width="8" height="14">
<path d="M91.105 6.95711C91.105 10.4046 88.3704 13.2136 84.9523 13.3272C84.8328 13.3311 84.7329 13.2351 84.7329 13.1156V11.3429C84.7329 11.2293 84.8211 11.1372 84.9347 11.1314C85.4283 11.1079 85.9062 11.0001 86.3568 10.8082C86.8543 10.5966 87.3009 10.2969 87.6849 9.91102C88.0688 9.52709 88.3704 9.07852 88.58 8.58294C88.7975 8.06973 88.9072 7.52125 88.9072 6.95711C88.9072 6.39297 88.7975 5.8445 88.58 5.33129C88.3704 4.83375 88.0688 4.38715 87.6849 4.00322C87.3009 3.61929 86.8543 3.31762 86.3568 3.10607C85.9043 2.91411 85.4263 2.80637 84.9347 2.78286C84.8211 2.77699 84.7329 2.68493 84.7329 2.57132V0.798574C84.7329 0.679086 84.8309 0.583112 84.9523 0.58703C88.3685 0.7026 91.105 3.50958 91.105 6.95711Z" fill="white"/>
</mask>
<g mask="url(#mask0_7539_18004)">
<path d="M88.9124 6.83813C88.9124 6.8205 88.9124 6.80287 88.9124 6.78524C88.9124 6.78524 88.9124 6.78329 88.9124 6.78133C88.9124 6.7637 88.9124 6.74803 88.9104 6.7304C88.9104 6.71277 88.9104 6.6971 88.9085 6.68143C88.9085 6.6638 88.9065 6.64813 88.9045 6.6305C88.9045 6.6305 88.9045 6.63049 88.9045 6.62854C88.9045 6.61678 88.9026 6.60307 88.9006 6.59132C88.9006 6.5874 88.9006 6.58348 88.9006 6.57957V6.5776C88.8987 6.5541 88.8967 6.52864 88.8928 6.50513C88.8928 6.49534 88.8908 6.48554 88.8889 6.4777C88.8889 6.47183 88.8889 6.46596 88.8869 6.46008C88.8869 6.44833 88.885 6.43658 88.883 6.42678C88.883 6.42287 88.883 6.41699 88.881 6.41307C88.881 6.40132 88.8771 6.38761 88.8771 6.37585C88.8771 6.3641 88.8732 6.3543 88.8732 6.34254C88.8712 6.32687 88.8693 6.3112 88.8654 6.29553C88.8654 6.29553 88.8654 6.29358 88.8654 6.29162C88.8654 6.28183 88.8634 6.27399 88.8615 6.2642C88.8615 6.26224 88.8615 6.26027 88.8615 6.25635C88.8615 6.25244 88.8615 6.25048 88.8615 6.24656C88.8615 6.24265 88.8615 6.23873 88.8615 6.23677C88.8615 6.23677 88.8615 6.23677 88.8615 6.23481C88.8615 6.23285 88.8615 6.22894 88.8615 6.22698V6.22306C88.8615 6.2211 88.8615 6.21915 88.8615 6.21719C88.8595 6.20544 88.8575 6.19368 88.8556 6.18193C88.8536 6.17018 88.8517 6.16038 88.8497 6.14862C88.8497 6.14079 88.8458 6.13099 88.8438 6.12316C88.8438 6.1212 88.8438 6.11924 88.8438 6.11533C88.8438 6.11533 88.8438 6.1114 88.8438 6.10944C88.8438 6.10553 88.8438 6.10357 88.8419 6.09965C88.8399 6.08986 88.8379 6.08007 88.836 6.07028C88.836 6.07028 88.836 6.06831 88.836 6.06635C88.836 6.06635 88.836 6.06439 88.836 6.06243C88.836 6.06047 88.836 6.05852 88.836 6.05656C88.836 6.0546 88.836 6.05264 88.836 6.05068C88.836 6.0448 88.834 6.03697 88.8321 6.0311C88.8321 6.02718 88.8321 6.02326 88.8301 6.02131C88.8262 6.00564 88.8223 5.98801 88.8184 5.97234C88.8184 5.96646 88.8144 5.96058 88.8144 5.9547C88.8125 5.94295 88.8086 5.93316 88.8066 5.9214C88.8066 5.91945 88.8066 5.91748 88.8046 5.91356C88.8046 5.9116 88.8046 5.90769 88.8027 5.90377C88.8007 5.89398 88.7968 5.88223 88.7949 5.87243C88.7949 5.87243 88.7949 5.86851 88.7949 5.86655C88.7949 5.86655 88.7949 5.86656 88.7949 5.86264C88.7909 5.84893 88.787 5.83717 88.7831 5.82346C88.7792 5.80779 88.7733 5.79212 88.7694 5.77449C88.7694 5.77449 88.7694 5.77057 88.7694 5.76861C88.7694 5.76861 88.7694 5.7647 88.7694 5.76274C88.7655 5.74903 88.7615 5.73531 88.7557 5.7216C88.7518 5.70789 88.7459 5.69222 88.742 5.67655C88.74 5.67067 88.738 5.66479 88.7361 5.65696C88.7361 5.65108 88.7322 5.64521 88.7302 5.63737C88.7302 5.63345 88.7283 5.6315 88.7263 5.62758C88.7263 5.62366 88.7243 5.61975 88.7224 5.61583C88.7185 5.60408 88.7145 5.59232 88.7106 5.58057C88.7067 5.56882 88.7028 5.55511 88.6969 5.54335C88.6969 5.53943 88.693 5.53356 88.691 5.52964C88.6871 5.5218 88.6852 5.51201 88.6812 5.50417C88.6812 5.50221 88.6793 5.4983 88.6773 5.49634C88.6773 5.49243 88.6734 5.48655 88.6714 5.48263C88.6714 5.48067 88.6695 5.4787 88.6695 5.47479C88.6695 5.47087 88.6656 5.46499 88.6636 5.46107C88.6617 5.4552 88.6597 5.44737 88.6558 5.44149C88.6499 5.42582 88.644 5.41015 88.6362 5.39448C88.6362 5.39448 88.6362 5.39252 88.6362 5.39056C88.6303 5.37881 88.6264 5.36509 88.6205 5.35334C88.6205 5.35138 88.6205 5.34943 88.6186 5.34747C88.6127 5.33572 88.6088 5.32201 88.6029 5.31025C88.6029 5.30829 88.6009 5.30633 88.599 5.30241V5.30046C88.5931 5.28675 88.5872 5.27304 88.5813 5.26128C88.5813 5.26128 88.5813 5.25932 88.5794 5.25736C88.5735 5.24169 88.5657 5.22798 88.5598 5.21231C88.5559 5.20448 88.552 5.19664 88.55 5.18881C88.5461 5.18097 88.5422 5.17313 88.5382 5.16725C88.5304 5.15354 88.5245 5.13787 88.5167 5.12416C88.5167 5.12416 88.5167 5.12416 88.5167 5.1222C88.5108 5.10849 88.503 5.09477 88.4971 5.08106C88.4971 5.08106 88.4971 5.07911 88.4971 5.07715C88.4912 5.06736 88.4873 5.0556 88.4814 5.0458C88.4814 5.04385 88.4814 5.04189 88.4795 5.03993C88.4795 5.03993 88.4795 5.03601 88.4775 5.03405C88.4736 5.02426 88.4677 5.01643 88.4638 5.00664C88.4619 5.00076 88.4579 4.99488 88.456 4.99096C88.456 4.99096 88.456 4.989 88.454 4.98704C88.4501 4.98117 88.4481 4.97334 88.4442 4.96746C88.4403 4.96158 88.4364 4.95374 88.4344 4.94786C88.4325 4.94199 88.4286 4.93808 88.4266 4.9322C88.4246 4.92632 88.4207 4.9224 88.4188 4.91653C88.4188 4.91261 88.4148 4.90869 88.4129 4.90674C88.409 4.90086 88.407 4.89498 88.4031 4.8891C88.3992 4.88127 88.3953 4.87539 88.3913 4.86756C88.3913 4.8656 88.3894 4.86364 88.3874 4.85973C88.3874 4.85777 88.3855 4.8558 88.3835 4.85188C88.3835 4.84992 88.3815 4.84797 88.3796 4.84405C88.3737 4.83622 88.3698 4.82642 88.3639 4.81859C88.3639 4.81859 88.3639 4.81662 88.362 4.81466C88.362 4.81466 88.36 4.81076 88.358 4.81076C88.358 4.8088 88.3541 4.80487 88.3522 4.80095C88.3482 4.79507 88.3443 4.78724 88.3404 4.78137C88.3404 4.78137 88.3384 4.77744 88.3365 4.77549C88.3365 4.77549 88.3365 4.77354 88.3345 4.77158C88.3267 4.75982 88.3189 4.74807 88.313 4.73632C88.3091 4.72848 88.3032 4.7226 88.2993 4.71672C88.2973 4.71281 88.2934 4.70889 88.2914 4.70497C88.2895 4.70105 88.2875 4.69714 88.2856 4.69518C88.2836 4.69126 88.2797 4.68538 88.2758 4.68147C88.2758 4.67951 88.2718 4.67755 88.2718 4.67364C88.2679 4.66776 88.264 4.65992 88.2581 4.65404C88.2503 4.64229 88.2444 4.6325 88.2366 4.62074C88.2366 4.61878 88.2327 4.61487 88.2307 4.61291C88.2307 4.61095 88.2288 4.60899 88.2268 4.60703C88.219 4.59528 88.2111 4.58353 88.2033 4.57177C88.1955 4.56002 88.1876 4.54827 88.1798 4.53848C88.1798 4.53652 88.1778 4.53455 88.1759 4.53259C88.1739 4.53064 88.1719 4.52868 88.17 4.52476C88.1622 4.51301 88.1543 4.50322 88.1465 4.49147C88.1426 4.48559 88.1386 4.47971 88.1328 4.47383C88.1269 4.466 88.123 4.46012 88.1171 4.45425C88.1171 4.45425 88.1151 4.45032 88.1132 4.44837C88.1073 4.44053 88.1014 4.43466 88.0975 4.42682C88.0936 4.4229 88.0897 4.41703 88.0858 4.41311C88.0779 4.40136 88.0681 4.3896 88.0583 4.37785C88.0583 4.37589 88.0544 4.37198 88.0525 4.37002C88.0427 4.35827 88.0348 4.3465 88.025 4.33475C88.0192 4.32692 88.0133 4.32104 88.0074 4.31517C88.0035 4.31125 88.0015 4.30733 87.9976 4.30342C87.9937 4.2995 87.9898 4.29362 87.9859 4.2897C87.9819 4.28578 87.978 4.28187 87.9761 4.27795C87.9721 4.27403 87.9682 4.26815 87.9643 4.26424C87.9624 4.26228 87.9584 4.25836 87.9565 4.25444C87.9526 4.24857 87.9486 4.24465 87.9428 4.23877C87.9388 4.23485 87.9369 4.23094 87.933 4.22702C87.933 4.22702 87.9291 4.22311 87.9271 4.22115C87.9271 4.22115 87.9232 4.21722 87.9232 4.21527C87.9134 4.20547 87.9055 4.19372 87.8958 4.18393C87.886 4.17218 87.8742 4.16042 87.8625 4.14671C87.8507 4.13496 87.8409 4.12321 87.8292 4.11145C87.8174 4.0997 87.8076 4.08795 87.7959 4.0762C87.7723 4.05269 87.7508 4.02918 87.7273 4.00567C87.7214 3.99979 87.7155 3.99392 87.7097 3.98805C87.7038 3.98217 87.6979 3.97629 87.692 3.97041C87.6803 3.95866 87.6685 3.94691 87.6568 3.93516C87.645 3.9234 87.6333 3.91361 87.6215 3.90186C87.6098 3.89011 87.598 3.88032 87.5843 3.86856C87.5725 3.85681 87.5608 3.84701 87.5471 3.83525C87.5373 3.82546 87.5275 3.81762 87.5157 3.80783C87.5138 3.80587 87.5118 3.80392 87.5099 3.80196C87.4981 3.7902 87.4844 3.78042 87.4726 3.77062C87.4609 3.76083 87.4491 3.75103 87.4374 3.74123C87.4354 3.73928 87.4315 3.73732 87.4296 3.7334C87.4217 3.72753 87.4158 3.72164 87.408 3.71577C87.408 3.71577 87.4041 3.71381 87.4021 3.71185C87.4021 3.71185 87.3982 3.7099 87.3963 3.70794C87.3884 3.7001 87.3786 3.69422 87.3708 3.68834C87.3669 3.68638 87.3649 3.68247 87.361 3.68051C87.361 3.68051 87.361 3.68051 87.359 3.67855C87.3532 3.67267 87.3453 3.66875 87.3394 3.66288C87.3336 3.65896 87.3297 3.65504 87.3238 3.65112C87.3238 3.65112 87.3218 3.65112 87.3199 3.64916C87.3061 3.63937 87.2944 3.62958 87.2807 3.61979C87.267 3.60999 87.2552 3.60019 87.2415 3.5904C87.2415 3.5904 87.2395 3.5904 87.2376 3.58844C87.2278 3.5806 87.216 3.57277 87.2043 3.56494C87.2043 3.56494 87.2023 3.56493 87.2004 3.56297C87.1965 3.56102 87.1945 3.55906 87.1906 3.55514C87.1867 3.55318 87.1847 3.55123 87.1808 3.54731C87.1769 3.54535 87.1729 3.54143 87.169 3.53947C87.1671 3.53947 87.1651 3.53752 87.1632 3.53556C87.1632 3.53556 87.1612 3.53556 87.1592 3.5336C87.1455 3.52381 87.1318 3.51401 87.1181 3.50617C87.1122 3.50226 87.1044 3.49638 87.0985 3.49246C87.0926 3.48854 87.0848 3.48266 87.077 3.47875C87.073 3.47679 87.0711 3.47483 87.0672 3.47092C87.0652 3.47092 87.0633 3.46895 87.0613 3.46699C87.0613 3.46699 87.0593 3.46699 87.0574 3.46503C87.0515 3.46112 87.0476 3.4572 87.0417 3.45524C87.0417 3.45524 87.0378 3.45524 87.0378 3.45328L87.0339 3.45133C87.0221 3.4435 87.0084 3.43566 86.9967 3.42783C86.9908 3.42391 86.9829 3.41998 86.9771 3.41606C86.9712 3.41215 86.9634 3.40824 86.9575 3.40236C86.9575 3.40236 86.9575 3.40236 86.9555 3.40236C86.9438 3.39649 86.934 3.38864 86.9222 3.38277C86.9203 3.38277 86.9163 3.37886 86.9144 3.37886C86.9026 3.37102 86.8909 3.36514 86.8791 3.3573C86.8752 3.35534 86.8713 3.35339 86.8674 3.35143C86.8595 3.34751 86.8517 3.34163 86.8439 3.33772C86.8419 3.33772 86.8399 3.33575 86.838 3.3338C86.8341 3.33184 86.8282 3.32792 86.8243 3.32596C86.8125 3.31813 86.7988 3.31226 86.7851 3.30442C86.7733 3.29854 86.7616 3.2907 86.7498 3.28483C86.7479 3.28483 86.744 3.28287 86.742 3.28092C86.7283 3.27308 86.7146 3.26719 86.7009 3.25936C86.6872 3.25152 86.6715 3.24369 86.6578 3.23585C86.646 3.22998 86.6343 3.22411 86.6225 3.21823C86.6186 3.21627 86.6166 3.21431 86.6127 3.21235C86.6029 3.20647 86.5912 3.20255 86.5814 3.19668C86.5735 3.19276 86.5677 3.18884 86.5598 3.18688C86.55 3.18297 86.5422 3.17905 86.5324 3.17513C86.5285 3.17513 86.5265 3.17317 86.5226 3.17121C86.5167 3.16925 86.5128 3.16534 86.5069 3.16338C86.5069 3.16338 86.4972 3.15947 86.4932 3.15751C86.4893 3.15555 86.4834 3.15359 86.4795 3.15163C86.4756 3.15163 86.4736 3.14771 86.4697 3.14771C86.458 3.14183 86.4462 3.13792 86.4345 3.13204C86.4325 3.13204 86.4306 3.13204 86.4286 3.13008C86.4168 3.12616 86.4051 3.12029 86.3953 3.11637C86.3933 3.11637 86.3914 3.11637 86.3894 3.11441C86.3855 3.11441 86.3816 3.11049 86.3777 3.11049C86.3737 3.11049 86.3698 3.10658 86.3659 3.10658C86.3581 3.10266 86.3502 3.1007 86.3424 3.09679C86.3287 3.09091 86.315 3.08503 86.2993 3.07915C86.2915 3.07523 86.2836 3.07328 86.2758 3.06936C86.2719 3.06936 86.266 3.06544 86.2621 3.06348C86.2601 3.06348 86.2562 3.06152 86.2543 3.06152C86.2523 3.06152 86.2503 3.06153 86.2484 3.05957C86.2425 3.05957 86.2386 3.05564 86.2327 3.05369C86.2229 3.04977 86.2131 3.04585 86.2033 3.04193C86.2033 3.04193 86.1994 3.04193 86.1975 3.03997C86.1837 3.0341 86.17 3.03017 86.1563 3.0243C86.1563 3.0243 86.1544 3.0243 86.1524 3.0243C86.1367 3.01842 86.123 3.01451 86.1073 3.00864C86.1073 3.00864 86.1054 3.00864 86.1034 3.00864C86.0917 3.00472 86.078 3.0008 86.0662 2.99688C86.0662 2.99688 86.0643 2.99688 86.0623 2.99688C86.0466 2.99297 86.0329 2.98709 86.0172 2.98317C86.0172 2.98317 86.0153 2.98317 86.0133 2.98317C86.0094 2.98317 86.0055 2.98121 86.0016 2.97925C85.9977 2.97925 85.9937 2.97729 85.9898 2.97533C85.982 2.97337 85.9741 2.97142 85.9663 2.96946C85.9663 2.96946 85.9663 2.96946 85.9644 2.96946C85.9604 2.96946 85.9585 2.9675 85.9546 2.9675C85.9428 2.96358 85.9311 2.95966 85.9173 2.95771C85.9095 2.95575 85.9036 2.95378 85.8958 2.95182C85.888 2.94986 85.8782 2.94791 85.8703 2.94399C85.8586 2.94007 85.8468 2.93812 85.8351 2.9342C85.8312 2.9342 85.8253 2.93224 85.8214 2.93028H85.8174C85.8116 2.93028 85.8076 2.92832 85.8018 2.92636C85.79 2.9244 85.7802 2.92049 85.7685 2.91853C85.7508 2.91461 85.7332 2.91069 85.7156 2.90677C85.6999 2.90286 85.6842 2.89894 85.6666 2.89502C85.6627 2.89502 85.6588 2.89306 85.6529 2.89306C85.6509 2.89306 85.649 2.89306 85.647 2.89306C85.647 2.89306 85.6431 2.89306 85.6411 2.89306C85.6333 2.89306 85.6255 2.88915 85.6176 2.88915H85.6137C85.5961 2.88523 85.5804 2.88327 85.5628 2.87935C85.5471 2.87739 85.5334 2.87348 85.5177 2.87152C85.506 2.86956 85.4923 2.86759 85.4805 2.86563C85.4766 2.86563 85.4707 2.86564 85.4668 2.86369C85.4609 2.86369 85.457 2.86368 85.4531 2.86172C85.4413 2.85977 85.4276 2.8578 85.4159 2.85584C85.4061 2.85584 85.3963 2.85389 85.3845 2.85193C85.3767 2.85193 85.3669 2.84997 85.3591 2.84801C85.3434 2.84605 85.3277 2.84409 85.3121 2.84213C85.3003 2.84213 85.2905 2.84018 85.2788 2.83822C85.2729 2.83822 85.269 2.83822 85.2631 2.83822C85.2592 2.83822 85.2533 2.83822 85.2494 2.83822C85.2494 2.83822 85.2474 2.83822 85.2455 2.83822C85.2337 2.83822 85.2239 2.83626 85.2122 2.8343C85.1985 2.8343 85.1847 2.83234 85.171 2.83038C85.1671 2.83038 85.1632 2.83038 85.1593 2.83038C85.1573 2.83038 85.1534 2.83038 85.1514 2.83038C85.1377 2.83038 85.1221 2.82843 85.1083 2.82647C85.0907 2.82647 85.0731 2.8245 85.0555 2.82255C85.0339 2.82255 85.0124 2.82058 84.9908 2.81862C84.9771 2.81862 84.9654 2.81862 84.9516 2.81862H84.9497C84.9497 2.81862 84.9301 2.81862 84.9203 2.81862C84.9125 2.81862 84.9046 2.81862 84.8988 2.81862C84.8988 2.81862 84.8831 2.81862 84.8772 2.81862C84.8674 2.81862 84.8576 2.81862 84.8478 2.81862H84.84C84.84 2.81862 84.8224 2.81862 84.8145 2.81862C84.8028 2.81862 84.793 2.81862 84.7812 2.81862C84.7695 2.81862 84.7577 2.81862 84.746 2.81862C84.554 2.81862 84.364 2.82842 84.176 2.84605C84.1309 2.84997 84.0878 2.85585 84.0427 2.85976C84.0212 2.86172 83.9977 2.86564 83.9761 2.86759C83.9546 2.86955 83.9331 2.87348 83.9095 2.87544C83.89 2.8774 83.8704 2.88131 83.8488 2.88327C83.8488 2.88327 83.8449 2.88327 83.8429 2.88327C83.7999 2.88915 83.7568 2.89698 83.7117 2.90481C83.6902 2.90873 83.6686 2.91265 83.6471 2.91657C83.6353 2.91657 83.6236 2.92049 83.6138 2.92245C83.602 2.92441 83.5903 2.92636 83.5805 2.92832C83.553 2.93419 83.5237 2.94008 83.4962 2.94595C83.4669 2.95183 83.4375 2.9577 83.4101 2.96358C83.4101 2.96358 83.4081 2.96358 83.4061 2.96358C83.3767 2.96945 83.3474 2.97729 83.318 2.98317C83.2866 2.99101 83.2573 2.99688 83.2259 3.00471C83.2083 3.00863 83.1926 3.01255 83.175 3.01843C83.1417 3.02626 83.1064 3.03606 83.0731 3.04585C83.0555 3.04977 83.0398 3.05565 83.0222 3.05957C83.0046 3.06349 82.9889 3.06935 82.9713 3.07327C82.9536 3.07719 82.938 3.08307 82.9203 3.08894C82.9047 3.09286 82.887 3.09874 82.8714 3.10462C82.8714 3.10462 82.8714 3.10462 82.8694 3.10462C82.8537 3.11049 82.8361 3.11441 82.8204 3.12029C82.8048 3.12617 82.7871 3.13008 82.7715 3.13595C82.7558 3.14183 82.7401 3.14575 82.7245 3.15163C82.7127 3.15554 82.699 3.15946 82.6872 3.16338C82.6775 3.1673 82.6677 3.17121 82.6579 3.17317C82.6187 3.18688 82.5795 3.2006 82.5403 3.21627C82.5305 3.22019 82.5207 3.2241 82.5129 3.22606C82.5012 3.22998 82.4914 3.2339 82.4796 3.23782C82.46 3.24565 82.4404 3.25348 82.4208 3.26132C82.411 3.26524 82.3993 3.26916 82.3875 3.27503C82.3582 3.28679 82.3307 3.29854 82.3014 3.31029C82.2857 3.31813 82.2681 3.324 82.2524 3.33183C82.2387 3.33771 82.225 3.34359 82.2113 3.34947C82.1603 3.37102 82.1094 3.39452 82.0604 3.41802C82.0467 3.4239 82.033 3.43174 82.0193 3.43762C81.843 3.52185 81.6726 3.61587 81.5061 3.71577C80.2661 4.46012 79.3004 5.61582 78.797 6.99287C78.6697 7.3435 78.5698 7.70981 78.5052 8.08786C78.4425 7.73136 78.4111 7.36701 78.4111 6.99287C78.4111 6.61874 78.4425 6.2544 78.5052 5.8979C78.9616 3.25545 81.0457 1.1693 83.6882 0.712891C84.0663 0.777532 84.4306 0.87743 84.7832 1.00475C86.1602 1.50817 87.314 2.47388 88.0603 3.71577C88.6244 4.656 88.9535 5.75295 88.9653 6.92824C88.9653 6.91061 88.9653 6.89298 88.9653 6.87535L88.9124 6.83813Z" fill="url(#paint2_linear_7539_18004)"/>
<path d="M85.8261 13.2374C85.4716 13.2982 85.1053 13.3315 84.7312 13.3315C84.357 13.3315 83.9927 13.3001 83.6362 13.2374C80.9937 12.7791 78.9115 10.6949 78.4531 8.05244C78.5178 7.67439 78.6177 7.30808 78.745 6.95745C79.2484 5.5804 80.2141 4.4247 81.454 3.68035C81.6205 3.58045 81.791 3.48839 81.9673 3.4022C81.981 3.39436 81.9947 3.38848 82.0084 3.3826C82.0593 3.3591 82.1083 3.3356 82.1592 3.31405C82.1729 3.30817 82.1866 3.30229 82.2004 3.29641C82.216 3.28858 82.2337 3.2827 82.2493 3.27487C82.2787 3.26312 82.3061 3.25136 82.3355 3.23961C82.3473 3.23569 82.3571 3.23178 82.3688 3.2259C82.3884 3.21806 82.408 3.21023 82.4276 3.20239C82.4393 3.19848 82.4491 3.19456 82.4609 3.19064C82.4707 3.18672 82.4805 3.18281 82.4883 3.18085C82.5275 3.16714 82.5667 3.15146 82.6058 3.13775C82.6156 3.13383 82.6254 3.12992 82.6352 3.12796C82.647 3.12404 82.6607 3.12012 82.6724 3.11621C82.6881 3.11033 82.7038 3.10641 82.7194 3.10053C82.7351 3.09465 82.7527 3.08879 82.7684 3.08487C82.7841 3.07899 82.8017 3.07507 82.8174 3.0692C82.8174 3.0692 82.8174 3.0692 82.8193 3.0692C82.835 3.06528 82.8507 3.0594 82.8683 3.05352C82.8859 3.04765 82.9016 3.04372 82.9192 3.03785C82.9369 3.03197 82.9525 3.02805 82.9702 3.02413C82.9878 3.02022 83.0035 3.01435 83.0211 3.01043C83.0544 3.00064 83.0897 2.9928 83.123 2.98301C83.1406 2.97909 83.1563 2.97517 83.1739 2.96929C83.2052 2.96146 83.2346 2.95363 83.266 2.94775C83.2953 2.93991 83.3247 2.93403 83.3541 2.92815C83.3541 2.92815 83.3561 2.92815 83.358 2.92815C83.3874 2.92228 83.4148 2.91641 83.4442 2.91053C83.4716 2.90465 83.501 2.89877 83.5284 2.8929C83.5402 2.89094 83.55 2.88899 83.5617 2.88703C83.5735 2.88507 83.5852 2.8831 83.595 2.88114C83.6166 2.87723 83.6381 2.87331 83.6597 2.86939C83.7028 2.86156 83.7459 2.85568 83.7909 2.84785C83.7929 2.84785 83.7948 2.84785 83.7968 2.84785C83.8164 2.84589 83.836 2.84198 83.8575 2.84002C83.8791 2.83806 83.9006 2.83413 83.9241 2.83217C83.9457 2.83021 83.9672 2.8263 83.9907 2.82434C84.0338 2.82043 84.0789 2.81455 84.1239 2.81063C84.3022 2.79496 84.4824 2.78516 84.6646 2.7832C82.408 2.81846 80.5843 4.64213 80.5491 6.90065C80.5491 6.90065 80.5491 6.91436 80.5491 6.92023C80.5491 6.9359 80.5491 6.95158 80.5491 6.9653C80.5491 6.97901 80.5491 6.99663 80.5491 7.01034C80.5491 7.01818 80.5491 7.02405 80.5491 7.02993C80.5608 8.20326 80.8899 9.30217 81.454 10.2424C82.1984 11.4823 83.3541 12.448 84.7292 12.9534C85.0798 13.0827 85.4461 13.1806 85.8242 13.2453L85.8261 13.2374Z" fill="url(#paint3_linear_7539_18004)"/>
<path d="M91.1039 6.95436C91.1039 7.32849 91.0726 7.69284 91.0099 8.04934C90.5535 10.6918 88.4693 12.7779 85.8269 13.2343C85.4488 13.1697 85.0845 13.0698 84.7319 12.9425C83.3548 12.4391 82.2011 11.4734 81.4567 10.2315C80.8926 9.29124 80.5635 8.1943 80.5518 7.019C80.587 9.27752 82.4107 11.1012 84.6672 11.1364C84.6672 11.1364 84.681 11.1364 84.6868 11.1364C84.7025 11.1364 84.7182 11.1364 84.7319 11.1364C84.7456 11.1364 84.7632 11.1364 84.7769 11.1364C84.7828 11.1364 84.7907 11.1364 84.7965 11.1364C85.9699 11.1247 87.0668 10.7956 88.007 10.2315C89.247 9.48712 90.2127 8.33142 90.7161 6.95241C90.8454 6.60178 90.9433 6.23547 91.0079 5.85742C91.0687 6.21393 91.102 6.57827 91.102 6.95241L91.1039 6.95436Z" fill="url(#paint4_linear_7539_18004)"/>
<path d="M91.0097 5.86007C90.9451 6.23813 90.8452 6.60442 90.7179 6.95505C90.2144 8.3321 89.2487 9.48782 88.0088 10.2341C87.0686 10.7983 85.9716 11.1274 84.7983 11.1391C87.0549 11.1038 88.8785 9.28018 88.9138 7.02166C88.9138 7.02166 88.9138 7.00795 88.9138 7.00207C88.9138 6.9864 88.9138 6.97268 88.9138 6.95701C88.9138 6.94134 88.9138 6.92763 88.9138 6.91196C88.9138 6.90609 88.9138 6.89824 88.9138 6.89237C88.902 5.71903 88.573 4.62014 88.0088 3.67991C87.2645 2.43997 86.1107 1.47427 84.7317 0.96889C84.3811 0.839608 84.0148 0.741669 83.6367 0.677027C83.9932 0.616304 84.3576 0.583008 84.7317 0.583008C85.1058 0.583008 85.4702 0.614345 85.8267 0.677027C88.4691 1.13539 90.5533 3.21958 91.0097 5.86204V5.86007Z" fill="url(#paint5_linear_7539_18004)"/>
</g>
<path d="M6.37015 5.28133C6.37015 5.15988 6.26829 5.06194 6.14684 5.06978C5.66106 5.09524 5.19094 5.20298 4.74433 5.39103C4.58566 5.45958 4.43092 5.53598 4.28205 5.62216C4.21545 5.65938 4.17627 5.7299 4.17627 5.80629V8.28812C4.17627 8.36451 4.2174 8.43503 4.28205 8.47225C4.43092 8.55844 4.58566 8.63483 4.74433 8.70339C5.19094 8.89143 5.66106 8.99917 6.14684 9.02464C6.26829 9.03051 6.37015 8.93453 6.37015 8.81308V5.28329V5.28133Z" fill="url(#paint6_linear_7539_18004)"/>
<path d="M6.36958 5.28133C6.36958 5.15988 6.26772 5.06194 6.14627 5.06978C5.66048 5.09524 5.55471 5.20298 5.1081 5.39103C4.94943 5.45958 4.79468 5.53598 4.64581 5.62216C4.57921 5.65938 4.54004 5.7299 4.54004 5.80629V8.28812C4.54004 8.36451 4.58117 8.43503 4.64581 8.47225C4.79468 8.55844 4.94943 8.63483 5.1081 8.70339C5.55471 8.89143 5.66048 8.99917 6.14627 9.02464C6.26772 9.03051 6.36958 8.93453 6.36958 8.81308V5.28329V5.28133Z" fill="url(#paint7_linear_7539_18004)"/>
<mask id="mask1_7539_18004" style="mask-type:luminance" maskUnits="userSpaceOnUse" x="6" y="0" width="7" height="14">
<path d="M12.7378 7.04501C12.7378 10.4925 10.0033 13.3015 6.58511 13.4151C6.46562 13.419 6.36572 13.323 6.36572 13.2036V11.4308C6.36572 11.3172 6.45387 11.2251 6.56748 11.2193C7.0611 11.1958 7.53906 11.088 7.98959 10.8961C8.48713 10.6845 8.93374 10.3848 9.31767 9.99891C9.7016 9.61498 10.0033 9.16642 10.2128 8.67083C10.4303 8.15762 10.54 7.60915 10.54 7.04501C10.54 6.48087 10.4303 5.93239 10.2128 5.41918C10.0033 4.92164 9.7016 4.47504 9.31767 4.09111C8.93374 3.70718 8.48713 3.40552 7.98959 3.19396C7.5371 3.002 7.05915 2.89427 6.56748 2.87076C6.45387 2.86489 6.36572 2.77282 6.36572 2.65921V0.886477C6.36572 0.766988 6.46366 0.671003 6.58511 0.67492C10.0013 0.790491 12.7378 3.59749 12.7378 7.04501Z" fill="white"/>
</mask>
<g mask="url(#mask1_7539_18004)">
<path d="M10.5447 6.92601C10.5447 6.90838 10.5447 6.89076 10.5447 6.87313C10.5447 6.87313 10.5447 6.87117 10.5447 6.86921C10.5447 6.85158 10.5447 6.83591 10.5427 6.81828C10.5427 6.80065 10.5427 6.78498 10.5408 6.76931C10.5408 6.75168 10.5388 6.736 10.5369 6.71838C10.5369 6.71838 10.5369 6.71837 10.5369 6.71641C10.5369 6.70466 10.5349 6.69095 10.5329 6.6792C10.5329 6.67528 10.5329 6.67136 10.5329 6.66744V6.6655C10.531 6.64199 10.529 6.61653 10.5251 6.59302C10.5251 6.58323 10.5232 6.57343 10.5212 6.56559C10.5212 6.55972 10.5212 6.55384 10.5192 6.54796C10.5192 6.53621 10.5173 6.52446 10.5153 6.51466C10.5153 6.51074 10.5153 6.50487 10.5134 6.50095C10.5134 6.4892 10.5094 6.47548 10.5094 6.46373C10.5094 6.45198 10.5055 6.44219 10.5055 6.43043C10.5036 6.41476 10.5016 6.3991 10.4977 6.38342C10.4977 6.38342 10.4977 6.38146 10.4977 6.3795C10.4977 6.36971 10.4957 6.36187 10.4938 6.35208C10.4938 6.35012 10.4938 6.34816 10.4938 6.34425C10.4938 6.34033 10.4938 6.33837 10.4938 6.33445C10.4938 6.33054 10.4938 6.32661 10.4938 6.32465C10.4938 6.32465 10.4938 6.32466 10.4938 6.3227C10.4938 6.32074 10.4938 6.31682 10.4938 6.31486V6.31095C10.4938 6.30899 10.4938 6.30703 10.4938 6.30507C10.4918 6.29331 10.4899 6.28156 10.4879 6.26981C10.4859 6.25806 10.484 6.24827 10.482 6.23651C10.482 6.22868 10.4781 6.21888 10.4761 6.21105C10.4761 6.20909 10.4761 6.20712 10.4761 6.2032C10.4761 6.2032 10.4761 6.19929 10.4761 6.19733C10.4761 6.19342 10.4761 6.19146 10.4742 6.18754C10.4722 6.17775 10.4703 6.16795 10.4683 6.15815C10.4683 6.15815 10.4683 6.15619 10.4683 6.15423C10.4683 6.15423 10.4683 6.15228 10.4683 6.15032C10.4683 6.14837 10.4683 6.1464 10.4683 6.14444C10.4683 6.14248 10.4683 6.14053 10.4683 6.13857C10.4683 6.1327 10.4663 6.12485 10.4644 6.11898C10.4644 6.11506 10.4644 6.11114 10.4624 6.10918C10.4585 6.09351 10.4546 6.07588 10.4507 6.06021C10.4507 6.05434 10.4468 6.04846 10.4468 6.04258C10.4448 6.03083 10.4409 6.02104 10.4389 6.00928C10.4389 6.00732 10.4389 6.00537 10.437 6.00145C10.437 5.99949 10.437 5.99558 10.435 5.99166C10.433 5.98187 10.4291 5.97011 10.4272 5.96031C10.4272 5.96031 10.4272 5.9564 10.4272 5.95444C10.4272 5.95444 10.4272 5.95444 10.4272 5.95052C10.4233 5.93681 10.4193 5.92505 10.4154 5.91134C10.4115 5.89567 10.4056 5.88 10.4017 5.86237C10.4017 5.86237 10.4017 5.85846 10.4017 5.8565C10.4017 5.8565 10.4017 5.85258 10.4017 5.85062C10.3978 5.83691 10.3939 5.8232 10.388 5.80949C10.3841 5.79578 10.3782 5.7801 10.3743 5.76443C10.3723 5.75855 10.3704 5.75268 10.3684 5.74485C10.3684 5.73897 10.3645 5.73309 10.3625 5.72525C10.3625 5.72133 10.3606 5.71938 10.3586 5.71546C10.3586 5.71154 10.3567 5.70762 10.3547 5.70371C10.3508 5.69195 10.3469 5.6802 10.3429 5.66845C10.339 5.6567 10.3351 5.64298 10.3292 5.63123C10.3292 5.62731 10.3253 5.62144 10.3234 5.61752C10.3194 5.60968 10.3175 5.59989 10.3136 5.59205C10.3136 5.59009 10.3116 5.58618 10.3096 5.58422C10.3096 5.5803 10.3057 5.57443 10.3038 5.57051C10.3038 5.56855 10.3018 5.5666 10.3018 5.56268C10.3018 5.55876 10.2979 5.55288 10.2959 5.54896C10.294 5.54309 10.292 5.53525 10.2881 5.52937C10.2822 5.5137 10.2763 5.49803 10.2685 5.48236C10.2685 5.48236 10.2685 5.48041 10.2685 5.47845C10.2626 5.4667 10.2587 5.45298 10.2528 5.44123C10.2528 5.43927 10.2528 5.43731 10.2509 5.43535C10.245 5.4236 10.2411 5.40988 10.2352 5.39813C10.2352 5.39617 10.2332 5.39422 10.2313 5.3903V5.38834C10.2254 5.37463 10.2195 5.36091 10.2137 5.34916C10.2137 5.34916 10.2137 5.3472 10.2117 5.34524C10.2058 5.32957 10.198 5.31586 10.1921 5.30019C10.1882 5.29235 10.1843 5.28452 10.1823 5.27669C10.1784 5.26885 10.1745 5.26102 10.1706 5.25514C10.1627 5.24143 10.1569 5.22575 10.149 5.21204C10.149 5.21204 10.149 5.21204 10.149 5.21008C10.1431 5.19637 10.1353 5.18266 10.1294 5.16895C10.1294 5.16895 10.1294 5.16699 10.1294 5.16503C10.1236 5.15524 10.1196 5.14349 10.1138 5.1337C10.1138 5.13174 10.1138 5.12977 10.1118 5.12781C10.1118 5.12781 10.1118 5.1239 10.1098 5.12194C10.1059 5.11215 10.1001 5.10431 10.0961 5.09452C10.0942 5.08864 10.0903 5.08276 10.0883 5.07884C10.0883 5.07884 10.0883 5.07689 10.0863 5.07493C10.0824 5.06906 10.0805 5.06121 10.0765 5.05534C10.0726 5.04946 10.0687 5.04163 10.0668 5.03575C10.0648 5.02988 10.0609 5.02596 10.0589 5.02008C10.057 5.0142 10.053 5.01028 10.0511 5.00441C10.0511 5.00049 10.0472 4.99657 10.0452 4.99461C10.0413 4.98874 10.0393 4.98287 10.0354 4.97699C10.0315 4.96916 10.0276 4.96327 10.0237 4.95544C10.0237 4.95348 10.0217 4.95152 10.0197 4.9476C10.0197 4.94565 10.0178 4.94369 10.0158 4.93977C10.0158 4.93781 10.0139 4.93585 10.0119 4.93193C10.006 4.9241 10.0021 4.9143 9.99623 4.90647C9.99623 4.90647 9.99623 4.90451 9.99427 4.90256C9.99427 4.90256 9.99232 4.89863 9.99036 4.89863C9.99036 4.89668 9.98644 4.89276 9.98448 4.88884C9.98056 4.88297 9.97664 4.87512 9.97273 4.86925C9.97273 4.86925 9.97077 4.86534 9.96881 4.86338C9.96881 4.86338 9.96881 4.86141 9.96685 4.85946C9.95901 4.8477 9.95118 4.83595 9.9453 4.8242C9.94139 4.81636 9.93551 4.81049 9.93159 4.80461C9.92963 4.8007 9.92571 4.79678 9.92376 4.79286C9.9218 4.78894 9.91984 4.78502 9.91788 4.78306C9.91592 4.77914 9.912 4.77326 9.90809 4.76934C9.90809 4.76739 9.90417 4.76543 9.90417 4.76151C9.90025 4.75564 9.89633 4.74781 9.89046 4.74193C9.88262 4.73018 9.87674 4.72037 9.86891 4.70862C9.86891 4.70666 9.86499 4.70275 9.86303 4.70079C9.86303 4.69883 9.86107 4.69688 9.85912 4.69492C9.85128 4.68317 9.84344 4.6714 9.83561 4.65965C9.82777 4.6479 9.81994 4.63615 9.8121 4.62635C9.8121 4.6244 9.81014 4.62244 9.80819 4.62048C9.80623 4.61853 9.80427 4.61656 9.80231 4.61264C9.79447 4.60089 9.78664 4.5911 9.7788 4.57934C9.77489 4.57347 9.77097 4.56759 9.76509 4.56171C9.75922 4.55387 9.7553 4.548 9.74942 4.54213C9.74942 4.54213 9.74746 4.53822 9.7455 4.53626C9.73963 4.52842 9.73375 4.52254 9.72983 4.5147C9.72591 4.51078 9.722 4.5049 9.71808 4.50099C9.71025 4.48923 9.70045 4.47748 9.69066 4.46573C9.69066 4.46377 9.68674 4.45986 9.68478 4.4579C9.67498 4.44615 9.66715 4.43439 9.65736 4.42264C9.65148 4.41481 9.6456 4.40892 9.63973 4.40305C9.63581 4.39913 9.63385 4.39521 9.62993 4.39129C9.62601 4.38738 9.6221 4.3815 9.61818 4.37758C9.61426 4.37366 9.61034 4.36975 9.60839 4.36583C9.60447 4.36191 9.60055 4.35604 9.59663 4.35213C9.59467 4.35017 9.59076 4.34624 9.5888 4.34232C9.58488 4.33645 9.58096 4.33254 9.57509 4.32666C9.57117 4.32274 9.56921 4.31883 9.56529 4.31491C9.56529 4.31491 9.56137 4.31099 9.55941 4.30903C9.55941 4.30903 9.5555 4.30511 9.5555 4.30316C9.5457 4.29336 9.53787 4.2816 9.52807 4.27181C9.51828 4.26006 9.50653 4.2483 9.49477 4.23459C9.48302 4.22284 9.47323 4.21109 9.46147 4.19933C9.44972 4.18758 9.43993 4.17583 9.42817 4.16408C9.40467 4.14057 9.38312 4.11707 9.35962 4.09356C9.35374 4.08768 9.34786 4.0818 9.34199 4.07593C9.33611 4.07005 9.33023 4.06418 9.32436 4.0583C9.3126 4.04655 9.30085 4.03479 9.2891 4.02303C9.27734 4.01128 9.26559 4.00149 9.25384 3.98974C9.24209 3.97798 9.23033 3.96819 9.21662 3.95644C9.20487 3.94469 9.19312 3.9349 9.1794 3.92314C9.16961 3.91335 9.15981 3.90551 9.14806 3.89572C9.1461 3.89376 9.14415 3.89179 9.14219 3.88984C9.13043 3.87808 9.11672 3.86829 9.10497 3.8585C9.09321 3.84871 9.08146 3.83891 9.06971 3.82911C9.06775 3.82715 9.06383 3.8252 9.06187 3.82128C9.05404 3.81541 9.04816 3.80952 9.04033 3.80365C9.04033 3.80365 9.03641 3.8017 9.03445 3.79974C9.03445 3.79974 9.03053 3.79777 9.02857 3.79582C9.02074 3.78798 9.01095 3.78211 9.00311 3.77623C8.99919 3.77427 8.99723 3.77035 8.99331 3.76839C8.99331 3.76839 8.99332 3.76839 8.99136 3.76643C8.98548 3.76055 8.97764 3.75664 8.97177 3.75077C8.96589 3.74685 8.96198 3.74293 8.9561 3.73901C8.9561 3.73901 8.95414 3.73901 8.95218 3.73705C8.93847 3.72726 8.92672 3.71746 8.913 3.70767C8.89929 3.69787 8.88754 3.68809 8.87383 3.67829C8.87383 3.67829 8.87187 3.67829 8.86991 3.67633C8.86012 3.6685 8.84836 3.66066 8.83661 3.65283C8.83661 3.65283 8.83465 3.65282 8.83269 3.65087C8.82877 3.64891 8.82682 3.64694 8.8229 3.64302C8.81898 3.64106 8.81702 3.63911 8.8131 3.63519C8.80919 3.63323 8.80527 3.62932 8.80135 3.62736C8.79939 3.62736 8.79743 3.6254 8.79548 3.62344C8.79548 3.62344 8.79352 3.62344 8.79156 3.62148C8.77785 3.61168 8.76413 3.60189 8.75042 3.59405C8.74454 3.59013 8.73671 3.58427 8.73083 3.58035C8.72496 3.57643 8.71712 3.57055 8.70929 3.56664C8.70537 3.56468 8.70341 3.56271 8.69949 3.55879C8.69753 3.55879 8.69557 3.55684 8.69362 3.55488C8.69362 3.55488 8.69166 3.55488 8.6897 3.55292C8.68382 3.54901 8.6799 3.54509 8.67403 3.54313C8.67403 3.54313 8.67011 3.54313 8.67011 3.54117L8.66619 3.53921C8.65444 3.53138 8.64073 3.52354 8.62897 3.51571C8.6231 3.51179 8.61526 3.50787 8.60939 3.50395C8.60351 3.50004 8.59567 3.49612 8.5898 3.49024C8.5898 3.49024 8.5898 3.49024 8.58784 3.49024C8.57609 3.48436 8.56629 3.47653 8.55454 3.47066C8.55258 3.47066 8.54866 3.46674 8.5467 3.46674C8.53495 3.4589 8.5232 3.45303 8.51145 3.44519C8.50753 3.44323 8.50361 3.44127 8.49969 3.43931C8.49186 3.43539 8.48402 3.42951 8.47619 3.4256C8.47423 3.4256 8.47227 3.42365 8.47031 3.42169C8.46639 3.41973 8.46052 3.4158 8.4566 3.41384C8.44485 3.40601 8.43113 3.40013 8.41742 3.3923C8.40567 3.38642 8.39392 3.37859 8.38216 3.37272C8.38021 3.37272 8.37629 3.37075 8.37433 3.36879C8.36062 3.36096 8.3469 3.35509 8.33319 3.34725C8.31948 3.33941 8.30381 3.33158 8.2901 3.32375C8.27835 3.31787 8.26659 3.31199 8.25484 3.30611C8.25092 3.30415 8.24896 3.30219 8.24505 3.30023C8.23525 3.29435 8.2235 3.29044 8.21371 3.28457C8.20587 3.28065 8.19999 3.27673 8.19216 3.27477C8.18236 3.27086 8.17453 3.26694 8.16473 3.26302C8.16082 3.26302 8.15886 3.26106 8.15494 3.2591C8.14906 3.25714 8.14515 3.25322 8.13927 3.25126C8.13927 3.25126 8.12947 3.24735 8.12556 3.24539C8.12164 3.24343 8.11576 3.24146 8.11185 3.23951C8.10793 3.23951 8.10597 3.2356 8.10205 3.2356C8.0903 3.22972 8.07855 3.2258 8.06679 3.21992C8.06483 3.21992 8.06288 3.21992 8.06092 3.21796C8.04916 3.21404 8.03741 3.20817 8.02762 3.20425C8.02566 3.20425 8.0237 3.20425 8.02174 3.20229C8.01782 3.20229 8.0139 3.19838 8.00999 3.19838C8.00607 3.19838 8.00215 3.19446 7.99823 3.19446C7.9904 3.19054 7.98256 3.18858 7.97473 3.18466C7.96102 3.17879 7.9473 3.17291 7.93163 3.16703C7.9238 3.16311 7.91596 3.16116 7.90813 3.15724C7.90421 3.15724 7.89833 3.15333 7.89442 3.15137C7.89246 3.15137 7.88854 3.14941 7.88658 3.14941C7.88462 3.14941 7.88266 3.14941 7.8807 3.14745C7.87483 3.14745 7.87091 3.14352 7.86503 3.14156C7.85524 3.13765 7.84545 3.13373 7.83565 3.12981C7.83565 3.12981 7.83173 3.12982 7.82978 3.12786C7.81606 3.12199 7.80235 3.11807 7.78864 3.11219C7.78864 3.11219 7.78668 3.11219 7.78472 3.11219C7.76905 3.10631 7.75534 3.10239 7.73967 3.09652C7.73967 3.09652 7.73771 3.09652 7.73575 3.09652C7.724 3.0926 7.71029 3.08868 7.69853 3.08476C7.69853 3.08476 7.69658 3.08476 7.69462 3.08476C7.67895 3.08084 7.66523 3.07497 7.64956 3.07105C7.64956 3.07105 7.6476 3.07105 7.64565 3.07105C7.64173 3.07105 7.63781 3.0691 7.63389 3.06714C7.62998 3.06714 7.62606 3.06518 7.62214 3.06322C7.6143 3.06126 7.60647 3.0593 7.59863 3.05734C7.59863 3.05734 7.59863 3.05734 7.59668 3.05734C7.59276 3.05734 7.5908 3.05538 7.58688 3.05538C7.57513 3.05146 7.56338 3.04754 7.54966 3.04558C7.54183 3.04362 7.53595 3.04167 7.52812 3.03971C7.52028 3.03775 7.51049 3.03579 7.50265 3.03187C7.4909 3.02795 7.47915 3.026 7.46739 3.02208C7.46347 3.02208 7.4576 3.02013 7.45368 3.01817H7.44976C7.44389 3.01817 7.43997 3.01621 7.43409 3.01425C7.42234 3.01229 7.41255 3.00836 7.40079 3.0064C7.38316 3.00249 7.36553 2.99857 7.3479 2.99465C7.33223 2.99073 7.31656 2.98682 7.29893 2.9829C7.29502 2.9829 7.2911 2.98095 7.28522 2.98095C7.28326 2.98095 7.2813 2.98095 7.27935 2.98095C7.27935 2.98095 7.27543 2.98095 7.27347 2.98095C7.26563 2.98095 7.2578 2.97703 7.24996 2.97703H7.24605C7.22842 2.97311 7.21275 2.97116 7.19512 2.96724C7.17945 2.96528 7.16573 2.96135 7.15006 2.9594C7.13831 2.95744 7.1246 2.95548 7.11285 2.95352C7.10893 2.95352 7.10305 2.95352 7.09913 2.95156C7.09326 2.95156 7.08934 2.95156 7.08542 2.9496C7.07367 2.94764 7.05996 2.94569 7.0482 2.94373C7.03841 2.94373 7.02862 2.94177 7.01686 2.93981C7.00903 2.93981 6.99923 2.93785 6.9914 2.93589C6.97573 2.93393 6.96006 2.93198 6.94439 2.93002C6.93263 2.93002 6.92284 2.92806 6.91109 2.9261C6.90521 2.9261 6.90129 2.9261 6.89542 2.9261C6.8915 2.9261 6.88562 2.9261 6.88171 2.9261C6.88171 2.9261 6.87975 2.9261 6.87779 2.9261C6.86604 2.9261 6.85624 2.92414 6.84449 2.92218C6.83078 2.92218 6.81706 2.92023 6.80335 2.91827C6.79943 2.91827 6.79552 2.91827 6.7916 2.91827C6.78964 2.91827 6.78572 2.91827 6.78376 2.91827C6.77005 2.91827 6.75438 2.9163 6.74067 2.91435C6.72304 2.91435 6.70541 2.91238 6.68778 2.91042C6.66623 2.91042 6.64469 2.90847 6.62314 2.90652C6.60943 2.90652 6.59768 2.90652 6.58396 2.90652H6.58201C6.58201 2.90652 6.56242 2.90652 6.55262 2.90652C6.54479 2.90652 6.53695 2.90652 6.53108 2.90652C6.53108 2.90652 6.51541 2.90652 6.50953 2.90652C6.49973 2.90652 6.48994 2.90652 6.48015 2.90652H6.47231C6.47231 2.90652 6.45468 2.90652 6.44685 2.90652C6.43509 2.90652 6.4253 2.90652 6.41355 2.90652C6.40179 2.90652 6.39004 2.90652 6.37829 2.90652C6.18632 2.90652 5.99632 2.9163 5.80827 2.93393C5.76322 2.93785 5.72012 2.94373 5.67507 2.94764C5.65352 2.9496 5.63002 2.95353 5.60847 2.95549C5.58692 2.95744 5.56538 2.96136 5.54187 2.96332C5.52228 2.96528 5.50269 2.96919 5.48115 2.97115C5.48115 2.97115 5.47723 2.97115 5.47527 2.97115C5.43218 2.97702 5.38908 2.98487 5.34403 2.9927C5.32248 2.99662 5.30094 3.00054 5.27939 3.00446C5.26764 3.00446 5.25588 3.00837 5.24609 3.01033C5.23434 3.01229 5.22258 3.01425 5.21279 3.01621C5.18537 3.02209 5.15598 3.02795 5.12856 3.03383C5.09918 3.03971 5.06979 3.04559 5.04237 3.05147C5.04237 3.05147 5.04041 3.05147 5.03845 3.05147C5.00907 3.05734 4.97969 3.06517 4.95031 3.07105C4.91897 3.07888 4.88958 3.08476 4.85824 3.09259C4.84061 3.09651 4.82494 3.10043 4.80731 3.10631C4.77401 3.11414 4.73875 3.12394 4.70545 3.13373C4.68782 3.13765 4.67215 3.14353 4.65452 3.14745C4.63689 3.15136 4.62122 3.15724 4.6036 3.16116C4.58597 3.16508 4.5703 3.17096 4.55267 3.17683C4.53699 3.18075 4.51937 3.18662 4.5037 3.1925C4.5037 3.1925 4.50369 3.1925 4.50174 3.1925C4.48607 3.19837 4.46844 3.20229 4.45277 3.20817C4.43709 3.21405 4.41947 3.21797 4.40379 3.22384C4.38812 3.22972 4.37245 3.23363 4.35678 3.23951C4.34503 3.24342 4.33132 3.24734 4.31957 3.25126C4.30977 3.25518 4.29998 3.2591 4.29018 3.26106C4.25101 3.27477 4.21183 3.28848 4.17265 3.30415C4.16286 3.30807 4.15307 3.31198 4.14523 3.31394C4.13348 3.31786 4.12368 3.32178 4.11193 3.32569C4.09234 3.33353 4.07275 3.34136 4.05317 3.3492C4.04337 3.35312 4.03162 3.35704 4.01987 3.36291C3.99048 3.37467 3.96306 3.38642 3.93368 3.39817C3.91801 3.406 3.90038 3.41189 3.88471 3.41973C3.871 3.4256 3.85728 3.43147 3.84357 3.43735C3.79264 3.4589 3.74171 3.48241 3.69274 3.50591C3.67903 3.51179 3.66532 3.51962 3.65161 3.5255C3.47531 3.60973 3.3049 3.70375 3.1384 3.80365C1.89846 4.548 0.932763 5.70371 0.429345 7.08076C0.302022 7.43139 0.202122 7.79769 0.13748 8.17574C0.0747981 7.81923 0.043457 7.4549 0.043457 7.08076C0.043457 6.70663 0.0747981 6.34228 0.13748 5.98578C0.593886 3.34333 2.67807 1.25719 5.32052 0.800781C5.69858 0.865422 6.06292 0.96532 6.41551 1.09264C7.79256 1.59606 8.9463 2.56175 9.69261 3.80365C10.2568 4.74388 10.5858 5.84083 10.5976 7.01612C10.5976 6.99849 10.5976 6.98086 10.5976 6.96323L10.5447 6.92601Z" fill="url(#paint8_linear_7539_18004)"/>
<path d="M7.45846 13.3253C7.10391 13.386 6.73761 13.4193 6.36347 13.4193C5.98934 13.4193 5.625 13.388 5.26849 13.3253C2.62604 12.867 0.543814 10.7828 0.0854492 8.14032C0.15009 7.76227 0.249991 7.39597 0.377314 7.04534C0.880731 5.66829 1.84643 4.51258 3.08637 3.76823C3.25287 3.66833 3.42328 3.57626 3.59958 3.49008C3.61329 3.48224 3.627 3.47637 3.64071 3.47049C3.69164 3.44699 3.74061 3.42347 3.79154 3.40193C3.80525 3.39605 3.81896 3.39018 3.83268 3.3843C3.84835 3.37647 3.86598 3.37058 3.88165 3.36275C3.91103 3.351 3.93845 3.33924 3.96784 3.32749C3.97959 3.32357 3.98938 3.31965 4.00113 3.31378C4.02072 3.30594 4.04031 3.29811 4.0599 3.29027C4.07165 3.28635 4.08145 3.28244 4.0932 3.27852C4.10299 3.2746 4.11279 3.27069 4.12062 3.26873C4.1598 3.25502 4.19898 3.23935 4.23815 3.22564C4.24795 3.22172 4.25774 3.2178 4.26753 3.21584C4.27929 3.21192 4.293 3.208 4.30475 3.20408C4.32042 3.19821 4.33609 3.1943 4.35176 3.18842C4.36743 3.18255 4.38506 3.17667 4.40073 3.17275C4.41641 3.16687 4.43403 3.16295 4.44971 3.15707C4.44971 3.15707 4.44971 3.15707 4.45166 3.15707C4.46733 3.15316 4.48301 3.14728 4.50064 3.1414C4.51826 3.13552 4.53393 3.13161 4.55156 3.12574C4.56919 3.11986 4.58486 3.11594 4.60249 3.11203C4.62012 3.10811 4.63579 3.10223 4.65342 3.09831C4.68672 3.08852 4.72198 3.08068 4.75528 3.07089C4.77291 3.06697 4.78858 3.06305 4.80621 3.05717C4.83755 3.04934 4.86693 3.0415 4.89828 3.03563C4.92766 3.02779 4.95704 3.02192 4.98642 3.01604C4.98642 3.01604 4.98838 3.01604 4.99034 3.01604C5.01972 3.01017 5.04715 3.00429 5.07653 2.99841C5.10395 2.99253 5.13333 2.98666 5.16076 2.98079C5.17251 2.97883 5.1823 2.97686 5.19406 2.97491C5.20581 2.97295 5.21756 2.97099 5.22736 2.96903C5.2489 2.96512 5.27045 2.96119 5.292 2.95727C5.33509 2.94944 5.37819 2.94356 5.42324 2.93573C5.4252 2.93573 5.42716 2.93573 5.42912 2.93573C5.4487 2.93377 5.46829 2.92985 5.48984 2.9279C5.51139 2.92594 5.53293 2.92202 5.55644 2.92006C5.57799 2.91811 5.59953 2.91418 5.62304 2.91222C5.66613 2.9083 5.71119 2.90243 5.75624 2.89851C5.93449 2.88284 6.1147 2.87305 6.29687 2.87109C4.04031 2.90635 2.21665 4.73001 2.18139 6.98853C2.18139 6.98853 2.18139 7.00225 2.18139 7.00812C2.18139 7.0238 2.18139 7.03946 2.18139 7.05317C2.18139 7.06689 2.18139 7.08451 2.18139 7.09822C2.18139 7.10606 2.18139 7.11194 2.18139 7.11782C2.19314 8.29115 2.52222 9.39004 3.08637 10.3303C3.83072 11.5702 4.98642 12.5359 6.36152 13.0413C6.71214 13.1706 7.07844 13.2685 7.4565 13.3332L7.45846 13.3253Z" fill="url(#paint9_linear_7539_18004)"/>
<path d="M12.7363 7.04421C12.7363 7.41835 12.7049 7.78268 12.6422 8.13919C12.1858 10.7816 10.1016 12.8678 7.45919 13.3242C7.08114 13.2596 6.7168 13.1596 6.36421 13.0323C4.98716 12.5289 3.83341 11.5632 3.08906 10.3213C2.52492 9.38108 2.19583 8.28414 2.18408 7.10885C2.21934 9.36737 4.043 11.191 6.29957 11.2263C6.29957 11.2263 6.31328 11.2263 6.31916 11.2263C6.33483 11.2263 6.3505 11.2263 6.36421 11.2263C6.37792 11.2263 6.39555 11.2263 6.40926 11.2263C6.41514 11.2263 6.42297 11.2263 6.42885 11.2263C7.60218 11.2145 8.69912 10.8855 9.63936 10.3213C10.8793 9.57697 11.845 8.42126 12.3484 7.04225C12.4777 6.69162 12.5756 6.32532 12.6403 5.94727C12.701 6.30377 12.7343 6.66812 12.7343 7.04225L12.7363 7.04421Z" fill="url(#paint10_linear_7539_18004)"/>
<path d="M12.642 5.94992C12.5774 6.32797 12.4775 6.69428 12.3502 7.04491C11.8468 8.42196 10.8811 9.57766 9.64113 10.324C8.7009 10.8881 7.60396 11.2172 6.43062 11.2289C8.68719 11.1937 10.5109 9.37002 10.5461 7.1115C10.5461 7.1115 10.5461 7.09779 10.5461 7.09192C10.5461 7.07624 10.5461 7.06253 10.5461 7.04685C10.5461 7.03118 10.5461 7.01748 10.5461 7.00181C10.5461 6.99593 10.5461 6.9881 10.5461 6.98222C10.5344 5.80889 10.2053 4.70998 9.64113 3.76975C8.89678 2.52981 7.74303 1.56412 6.36402 1.05875C6.01339 0.929463 5.6471 0.831512 5.26904 0.766871C5.62555 0.706148 5.98989 0.672852 6.36402 0.672852C6.73816 0.672852 7.1025 0.704189 7.45901 0.766871C10.1015 1.22524 12.1856 3.30943 12.642 5.95188V5.94992Z" fill="url(#paint11_linear_7539_18004)"/>
</g>
<mask id="mask2_7539_18004" style="mask-type:luminance" maskUnits="userSpaceOnUse" x="-1" y="1" width="6" height="12">
<path d="M4.07778 10.5402C3.84076 10.3835 3.61941 10.2033 3.4157 9.99956C3.03177 9.61563 2.73011 9.16707 2.52052 8.67149C2.30309 8.15828 2.19339 7.60981 2.19339 7.04567C2.19339 6.48153 2.30309 5.93305 2.52052 5.41984C2.73011 4.92229 3.03177 4.47569 3.4157 4.0898C3.61941 3.88608 3.84076 3.70587 4.07778 3.54916C4.1385 3.50999 4.17572 3.44339 4.17572 3.37091V1.37095C4.17572 1.21817 4.02097 1.11631 3.87994 1.17507C1.59791 2.14469 -0.000488281 4.40713 -0.000488281 7.04371C-0.000488281 9.68028 1.59987 11.9427 3.87994 12.9123C4.02097 12.9711 4.17572 12.8692 4.17572 12.7164V10.7165C4.17572 10.644 4.1385 10.5774 4.07778 10.5382V10.5402Z" fill="white"/>
</mask>
<g mask="url(#mask2_7539_18004)">
<path d="M10.5462 6.92601C10.5462 6.90838 10.5462 6.89076 10.5462 6.87313C10.5462 6.87313 10.5462 6.87117 10.5462 6.86921C10.5462 6.85158 10.5462 6.83591 10.5442 6.81828C10.5442 6.80065 10.5442 6.78498 10.5422 6.76931C10.5422 6.75168 10.5403 6.736 10.5383 6.71838C10.5383 6.71838 10.5383 6.71837 10.5383 6.71641C10.5383 6.70466 10.5364 6.69095 10.5344 6.6792C10.5344 6.67528 10.5344 6.67136 10.5344 6.66744V6.6655C10.5325 6.64199 10.5305 6.61653 10.5266 6.59302C10.5266 6.58323 10.5246 6.57343 10.5227 6.56559C10.5227 6.55972 10.5227 6.55384 10.5207 6.54796C10.5207 6.53621 10.5187 6.52446 10.5168 6.51466C10.5168 6.51074 10.5168 6.50487 10.5148 6.50095C10.5148 6.4892 10.5109 6.47548 10.5109 6.46373C10.5109 6.45198 10.507 6.44219 10.507 6.43043C10.505 6.41476 10.5031 6.3991 10.4992 6.38342C10.4992 6.38342 10.4992 6.38146 10.4992 6.3795C10.4992 6.36971 10.4972 6.36187 10.4952 6.35208C10.4952 6.35012 10.4952 6.34816 10.4952 6.34425C10.4952 6.34033 10.4952 6.33837 10.4952 6.33445C10.4952 6.33054 10.4952 6.32661 10.4952 6.32465C10.4952 6.32465 10.4952 6.32466 10.4952 6.3227C10.4952 6.32074 10.4952 6.31682 10.4952 6.31486V6.31095C10.4952 6.30899 10.4952 6.30703 10.4952 6.30507C10.4933 6.29331 10.4913 6.28156 10.4894 6.26981C10.4874 6.25806 10.4854 6.24827 10.4835 6.23651C10.4835 6.22868 10.4796 6.21888 10.4776 6.21105C10.4776 6.20909 10.4776 6.20712 10.4776 6.2032C10.4776 6.2032 10.4776 6.19929 10.4776 6.19733C10.4776 6.19342 10.4776 6.19146 10.4757 6.18754C10.4737 6.17775 10.4717 6.16795 10.4698 6.15815C10.4698 6.15815 10.4698 6.15619 10.4698 6.15423C10.4698 6.15423 10.4698 6.15228 10.4698 6.15032C10.4698 6.14837 10.4698 6.1464 10.4698 6.14444C10.4698 6.14248 10.4698 6.14053 10.4698 6.13857C10.4698 6.1327 10.4678 6.12485 10.4659 6.11898C10.4659 6.11506 10.4659 6.11114 10.4639 6.10918C10.46 6.09351 10.4561 6.07588 10.4521 6.06021C10.4521 6.05434 10.4482 6.04846 10.4482 6.04258C10.4463 6.03083 10.4424 6.02104 10.4404 6.00928C10.4404 6.00732 10.4404 6.00537 10.4384 6.00145C10.4384 5.99949 10.4384 5.99558 10.4365 5.99166C10.4345 5.98187 10.4306 5.97011 10.4286 5.96031C10.4286 5.96031 10.4286 5.9564 10.4286 5.95444C10.4286 5.95444 10.4286 5.95444 10.4286 5.95052C10.4247 5.93681 10.4208 5.92505 10.4169 5.91134C10.413 5.89567 10.4071 5.88 10.4032 5.86237C10.4032 5.86237 10.4032 5.85846 10.4032 5.8565C10.4032 5.8565 10.4032 5.85258 10.4032 5.85062C10.3993 5.83691 10.3953 5.8232 10.3895 5.80949C10.3855 5.79578 10.3797 5.7801 10.3758 5.76443C10.3738 5.75855 10.3718 5.75268 10.3699 5.74485C10.3699 5.73897 10.366 5.73309 10.364 5.72525C10.364 5.72133 10.362 5.71938 10.3601 5.71546C10.3601 5.71154 10.3581 5.70762 10.3562 5.70371C10.3522 5.69195 10.3483 5.6802 10.3444 5.66845C10.3405 5.6567 10.3366 5.64298 10.3307 5.63123C10.3307 5.62731 10.3268 5.62144 10.3248 5.61752C10.3209 5.60968 10.3189 5.59989 10.315 5.59205C10.315 5.59009 10.3131 5.58618 10.3111 5.58422C10.3111 5.5803 10.3072 5.57443 10.3052 5.57051C10.3052 5.56855 10.3033 5.5666 10.3033 5.56268C10.3033 5.55876 10.2994 5.55288 10.2974 5.54896C10.2954 5.54309 10.2935 5.53525 10.2896 5.52937C10.2837 5.5137 10.2778 5.49803 10.27 5.48236C10.27 5.48236 10.27 5.48041 10.27 5.47845C10.2641 5.4667 10.2602 5.45298 10.2543 5.44123C10.2543 5.43927 10.2543 5.43731 10.2523 5.43535C10.2465 5.4236 10.2426 5.40988 10.2367 5.39813C10.2367 5.39617 10.2347 5.39422 10.2328 5.3903V5.38834C10.2269 5.37463 10.221 5.36091 10.2151 5.34916C10.2151 5.34916 10.2151 5.3472 10.2132 5.34524C10.2073 5.32957 10.1995 5.31586 10.1936 5.30019C10.1897 5.29235 10.1857 5.28452 10.1838 5.27669C10.1799 5.26885 10.176 5.26102 10.172 5.25514C10.1642 5.24143 10.1583 5.22575 10.1505 5.21204C10.1505 5.21204 10.1505 5.21204 10.1505 5.21008C10.1446 5.19637 10.1368 5.18266 10.1309 5.16895C10.1309 5.16895 10.1309 5.16699 10.1309 5.16503C10.125 5.15524 10.1211 5.14349 10.1152 5.1337C10.1152 5.13174 10.1152 5.12977 10.1133 5.12781C10.1133 5.12781 10.1133 5.1239 10.1113 5.12194C10.1074 5.11215 10.1015 5.10431 10.0976 5.09452C10.0956 5.08864 10.0917 5.08276 10.0898 5.07884C10.0898 5.07884 10.0898 5.07689 10.0878 5.07493C10.0839 5.06906 10.0819 5.06121 10.078 5.05534C10.0741 5.04946 10.0702 5.04163 10.0682 5.03575C10.0663 5.02988 10.0623 5.02596 10.0604 5.02008C10.0584 5.0142 10.0545 5.01028 10.0525 5.00441C10.0525 5.00049 10.0486 4.99657 10.0467 4.99461C10.0428 4.98874 10.0408 4.98287 10.0369 4.97699C10.033 4.96916 10.029 4.96327 10.0251 4.95544C10.0251 4.95348 10.0232 4.95152 10.0212 4.9476C10.0212 4.94565 10.0192 4.94369 10.0173 4.93977C10.0173 4.93781 10.0153 4.93585 10.0134 4.93193C10.0075 4.9241 10.0036 4.9143 9.9977 4.90647C9.9977 4.90647 9.9977 4.90451 9.99574 4.90256C9.99574 4.90256 9.99378 4.89863 9.99182 4.89863C9.99182 4.89668 9.9879 4.89276 9.98594 4.88884C9.98203 4.88297 9.97811 4.87512 9.97419 4.86925C9.97419 4.86925 9.97223 4.86534 9.97027 4.86338C9.97027 4.86338 9.97027 4.86141 9.96832 4.85946C9.96048 4.8477 9.95264 4.83595 9.94677 4.8242C9.94285 4.81636 9.93697 4.81049 9.93306 4.80461C9.9311 4.8007 9.92718 4.79678 9.92522 4.79286C9.92326 4.78894 9.9213 4.78502 9.91934 4.78306C9.91739 4.77914 9.91347 4.77326 9.90955 4.76934C9.90955 4.76739 9.90563 4.76543 9.90563 4.76151C9.90172 4.75564 9.8978 4.74781 9.89192 4.74193C9.88409 4.73018 9.87821 4.72037 9.87037 4.70862C9.87037 4.70666 9.86646 4.70275 9.8645 4.70079C9.8645 4.69883 9.86254 4.69688 9.86058 4.69492C9.85275 4.68317 9.84491 4.6714 9.83707 4.65965C9.82924 4.6479 9.8214 4.63615 9.81357 4.62635C9.81357 4.6244 9.81161 4.62244 9.80965 4.62048C9.80769 4.61853 9.80573 4.61656 9.80377 4.61264C9.79594 4.60089 9.7881 4.5911 9.78027 4.57934C9.77635 4.57347 9.77243 4.56759 9.76656 4.56171C9.76068 4.55387 9.75676 4.548 9.75089 4.54213C9.75089 4.54213 9.74893 4.53822 9.74697 4.53626C9.74109 4.52842 9.73522 4.52254 9.7313 4.5147C9.72738 4.51078 9.72346 4.5049 9.71955 4.50099C9.71171 4.48923 9.70192 4.47748 9.69212 4.46573C9.69212 4.46377 9.6882 4.45986 9.68624 4.4579C9.67645 4.44615 9.66861 4.43439 9.65882 4.42264C9.65294 4.41481 9.64707 4.40892 9.64119 4.40305C9.63727 4.39913 9.63531 4.39521 9.6314 4.39129C9.62748 4.38738 9.62356 4.3815 9.61965 4.37758C9.61573 4.37366 9.61181 4.36975 9.60985 4.36583C9.60593 4.36191 9.60202 4.35604 9.5981 4.35213C9.59614 4.35017 9.59222 4.34624 9.59026 4.34232C9.58634 4.33645 9.58243 4.33254 9.57655 4.32666C9.57263 4.32274 9.57067 4.31883 9.56676 4.31491C9.56676 4.31491 9.56284 4.31099 9.56088 4.30903C9.56088 4.30903 9.55696 4.30511 9.55696 4.30316C9.54717 4.29336 9.53933 4.2816 9.52954 4.27181C9.51974 4.26006 9.50799 4.2483 9.49624 4.23459C9.48449 4.22284 9.47469 4.21109 9.46294 4.19933C9.45119 4.18758 9.44139 4.17583 9.42964 4.16408C9.40613 4.14057 9.38459 4.11707 9.36108 4.09356C9.3552 4.08768 9.34933 4.0818 9.34345 4.07593C9.33757 4.07005 9.3317 4.06418 9.32582 4.0583C9.31407 4.04655 9.30232 4.03479 9.29056 4.02303C9.27881 4.01128 9.26706 4.00149 9.2553 3.98974C9.24355 3.97798 9.2318 3.96819 9.21809 3.95644C9.20633 3.94469 9.19458 3.9349 9.18087 3.92314C9.17107 3.91335 9.16128 3.90551 9.14953 3.89572C9.14757 3.89376 9.14561 3.89179 9.14365 3.88984C9.1319 3.87808 9.11819 3.86829 9.10643 3.8585C9.09468 3.84871 9.08293 3.83891 9.07117 3.82911C9.06921 3.82715 9.0653 3.8252 9.06334 3.82128C9.0555 3.81541 9.04963 3.80952 9.04179 3.80365C9.04179 3.80365 9.03787 3.8017 9.03592 3.79974C9.03592 3.79974 9.032 3.79777 9.03004 3.79582C9.0222 3.78798 9.01241 3.78211 9.00457 3.77623C9.00066 3.77427 8.9987 3.77035 8.99478 3.76839C8.99478 3.76839 8.99478 3.76839 8.99282 3.76643C8.98695 3.76055 8.97911 3.75664 8.97323 3.75077C8.96736 3.74685 8.96344 3.74293 8.95756 3.73901C8.95756 3.73901 8.9556 3.73901 8.95364 3.73705C8.93993 3.72726 8.92818 3.71746 8.91447 3.70767C8.90076 3.69787 8.889 3.68809 8.87529 3.67829C8.87529 3.67829 8.87333 3.67829 8.87138 3.67633C8.86158 3.6685 8.84983 3.66066 8.83808 3.65283C8.83808 3.65283 8.83612 3.65282 8.83416 3.65087C8.83024 3.64891 8.82828 3.64694 8.82436 3.64302C8.82045 3.64106 8.81849 3.63911 8.81457 3.63519C8.81065 3.63323 8.80673 3.62932 8.80282 3.62736C8.80086 3.62736 8.7989 3.6254 8.79694 3.62344C8.79694 3.62344 8.79498 3.62344 8.79302 3.62148C8.77931 3.61168 8.7656 3.60189 8.75189 3.59405C8.74601 3.59013 8.73818 3.58427 8.7323 3.58035C8.72642 3.57643 8.71859 3.57055 8.71075 3.56664C8.70683 3.56468 8.70487 3.56271 8.70096 3.55879C8.699 3.55879 8.69704 3.55684 8.69508 3.55488C8.69508 3.55488 8.69312 3.55488 8.69116 3.55292C8.68529 3.54901 8.68137 3.54509 8.67549 3.54313C8.67549 3.54313 8.67157 3.54313 8.67157 3.54117L8.66766 3.53921C8.6559 3.53138 8.64219 3.52354 8.63044 3.51571C8.62456 3.51179 8.61673 3.50787 8.61085 3.50395C8.60497 3.50004 8.59714 3.49612 8.59126 3.49024C8.59126 3.49024 8.59126 3.49024 8.5893 3.49024C8.57755 3.48436 8.56776 3.47653 8.556 3.47066C8.55405 3.47066 8.55013 3.46674 8.54817 3.46674C8.53642 3.4589 8.52466 3.45303 8.51291 3.44519C8.50899 3.44323 8.50508 3.44127 8.50116 3.43931C8.49332 3.43539 8.48549 3.42951 8.47765 3.4256C8.47569 3.4256 8.47373 3.42365 8.47178 3.42169C8.46786 3.41973 8.46198 3.4158 8.45806 3.41384C8.44631 3.40601 8.4326 3.40013 8.41889 3.3923C8.40713 3.38642 8.39538 3.37859 8.38363 3.37272C8.38167 3.37272 8.37775 3.37075 8.37579 3.36879C8.36208 3.36096 8.34837 3.35509 8.33466 3.34725C8.32095 3.33941 8.30527 3.33158 8.29156 3.32375C8.27981 3.31787 8.26806 3.31199 8.2563 3.30611C8.25239 3.30415 8.25043 3.30219 8.24651 3.30023C8.23672 3.29435 8.22496 3.29044 8.21517 3.28457C8.20733 3.28065 8.20146 3.27673 8.19362 3.27477C8.18383 3.27086 8.17599 3.26694 8.1662 3.26302C8.16228 3.26302 8.16032 3.26106 8.1564 3.2591C8.15053 3.25714 8.14661 3.25322 8.14073 3.25126C8.14073 3.25126 8.13094 3.24735 8.12702 3.24539C8.1231 3.24343 8.11723 3.24146 8.11331 3.23951C8.10939 3.23951 8.10743 3.2356 8.10352 3.2356C8.09176 3.22972 8.08001 3.2258 8.06826 3.21992C8.0663 3.21992 8.06434 3.21992 8.06238 3.21796C8.05063 3.21404 8.03887 3.20817 8.02908 3.20425C8.02712 3.20425 8.02516 3.20425 8.0232 3.20229C8.01929 3.20229 8.01537 3.19838 8.01145 3.19838C8.00753 3.19838 8.00362 3.19446 7.9997 3.19446C7.99186 3.19054 7.98403 3.18858 7.97619 3.18466C7.96248 3.17879 7.94877 3.17291 7.9331 3.16703C7.92526 3.16311 7.91743 3.16116 7.90959 3.15724C7.90567 3.15724 7.8998 3.15333 7.89588 3.15137C7.89392 3.15137 7.89 3.14941 7.88805 3.14941C7.88609 3.14941 7.88413 3.14941 7.88217 3.14745C7.87629 3.14745 7.87238 3.14352 7.8665 3.14156C7.85671 3.13765 7.84691 3.13373 7.83712 3.12981C7.83712 3.12981 7.8332 3.12982 7.83124 3.12786C7.81753 3.12199 7.80382 3.11807 7.7901 3.11219C7.7901 3.11219 7.78815 3.11219 7.78619 3.11219C7.77052 3.10631 7.7568 3.10239 7.74113 3.09652C7.74113 3.09652 7.73918 3.09652 7.73722 3.09652C7.72546 3.0926 7.71175 3.08868 7.7 3.08476C7.7 3.08476 7.69804 3.08476 7.69608 3.08476C7.68041 3.08084 7.6667 3.07497 7.65103 3.07105C7.65103 3.07105 7.64907 3.07105 7.64711 3.07105C7.64319 3.07105 7.63928 3.0691 7.63536 3.06714C7.63144 3.06714 7.62752 3.06518 7.6236 3.06322C7.61577 3.06126 7.60793 3.0593 7.6001 3.05734C7.6001 3.05734 7.6001 3.05734 7.59814 3.05734C7.59422 3.05734 7.59226 3.05538 7.58835 3.05538C7.57659 3.05146 7.56484 3.04754 7.55113 3.04558C7.54329 3.04362 7.53742 3.04167 7.52958 3.03971C7.52175 3.03775 7.51195 3.03579 7.50412 3.03187C7.49236 3.02795 7.48061 3.026 7.46886 3.02208C7.46494 3.02208 7.45906 3.02013 7.45515 3.01817H7.45123C7.44535 3.01817 7.44143 3.01621 7.43556 3.01425C7.4238 3.01229 7.41401 3.00836 7.40226 3.0064C7.38463 3.00249 7.367 2.99857 7.34937 2.99465C7.3337 2.99073 7.31803 2.98682 7.3004 2.9829C7.29648 2.9829 7.29256 2.98095 7.28669 2.98095C7.28473 2.98095 7.28277 2.98095 7.28081 2.98095C7.28081 2.98095 7.27689 2.98095 7.27493 2.98095C7.2671 2.98095 7.25926 2.97703 7.25143 2.97703H7.24751C7.22988 2.97311 7.21421 2.97116 7.19658 2.96724C7.18091 2.96528 7.1672 2.96135 7.15153 2.9594C7.13978 2.95744 7.12606 2.95548 7.11431 2.95352C7.11039 2.95352 7.10452 2.95352 7.1006 2.95156C7.09472 2.95156 7.09081 2.95156 7.08689 2.9496C7.07513 2.94764 7.06142 2.94569 7.04967 2.94373C7.03988 2.94373 7.03008 2.94177 7.01833 2.93981C7.01049 2.93981 7.0007 2.93785 6.99286 2.93589C6.97719 2.93393 6.96152 2.93198 6.94585 2.93002C6.9341 2.93002 6.92431 2.92806 6.91255 2.9261C6.90668 2.9261 6.90276 2.9261 6.89688 2.9261C6.89296 2.9261 6.88709 2.9261 6.88317 2.9261C6.88317 2.9261 6.88121 2.9261 6.87925 2.9261C6.8675 2.9261 6.8577 2.92414 6.84595 2.92218C6.83224 2.92218 6.81853 2.92023 6.80482 2.91827C6.8009 2.91827 6.79698 2.91827 6.79306 2.91827C6.79111 2.91827 6.78719 2.91827 6.78523 2.91827C6.77152 2.91827 6.75585 2.9163 6.74213 2.91435C6.7245 2.91435 6.70688 2.91238 6.68925 2.91042C6.6677 2.91042 6.64615 2.90847 6.62461 2.90652C6.61089 2.90652 6.59914 2.90652 6.58543 2.90652H6.58347C6.58347 2.90652 6.56388 2.90652 6.55409 2.90652C6.54625 2.90652 6.53842 2.90652 6.53254 2.90652C6.53254 2.90652 6.51687 2.90652 6.51099 2.90652C6.5012 2.90652 6.49141 2.90652 6.48161 2.90652H6.47378C6.47378 2.90652 6.45615 2.90652 6.44831 2.90652C6.43656 2.90652 6.42676 2.90652 6.41501 2.90652C6.40326 2.90652 6.39151 2.90652 6.37975 2.90652C6.18779 2.90652 5.99778 2.9163 5.80974 2.93393C5.76468 2.93785 5.72159 2.94373 5.67654 2.94764C5.65499 2.9496 5.63148 2.95353 5.60994 2.95549C5.58839 2.95744 5.56684 2.96136 5.54334 2.96332C5.52375 2.96528 5.50416 2.96919 5.48261 2.97115C5.48261 2.97115 5.47869 2.97115 5.47674 2.97115C5.43364 2.97702 5.39055 2.98487 5.34549 2.9927C5.32395 2.99662 5.3024 3.00054 5.28085 3.00446C5.2691 3.00446 5.25735 3.00837 5.24755 3.01033C5.2358 3.01229 5.22405 3.01425 5.21425 3.01621C5.18683 3.02209 5.15745 3.02795 5.13002 3.03383C5.10064 3.03971 5.07126 3.04559 5.04384 3.05147C5.04384 3.05147 5.04188 3.05147 5.03992 3.05147C5.01054 3.05734 4.98115 3.06517 4.95177 3.07105C4.92043 3.07888 4.89105 3.08476 4.85971 3.09259C4.84208 3.09651 4.82641 3.10043 4.80878 3.10631C4.77548 3.11414 4.74022 3.12394 4.70692 3.13373C4.68929 3.13765 4.67362 3.14353 4.65599 3.14745C4.63836 3.15136 4.62269 3.15724 4.60506 3.16116C4.58743 3.16508 4.57176 3.17096 4.55413 3.17683C4.53846 3.18075 4.52083 3.18662 4.50516 3.1925C4.50516 3.1925 4.50516 3.1925 4.5032 3.1925C4.48753 3.19837 4.4699 3.20229 4.45423 3.20817C4.43856 3.21405 4.42093 3.21797 4.40526 3.22384C4.38959 3.22972 4.37392 3.23363 4.35825 3.23951C4.3465 3.24342 4.33278 3.24734 4.32103 3.25126C4.31124 3.25518 4.30144 3.2591 4.29165 3.26106C4.25247 3.27477 4.21329 3.28848 4.17412 3.30415C4.16432 3.30807 4.15453 3.31198 4.1467 3.31394C4.13494 3.31786 4.12515 3.32178 4.1134 3.32569C4.09381 3.33353 4.07422 3.34136 4.05463 3.3492C4.04484 3.35312 4.03308 3.35704 4.02133 3.36291C3.99195 3.37467 3.96453 3.38642 3.93514 3.39817C3.91947 3.406 3.90184 3.41189 3.88617 3.41973C3.87246 3.4256 3.85875 3.43147 3.84504 3.43735C3.79411 3.4589 3.74318 3.48241 3.69421 3.50591C3.6805 3.51179 3.66678 3.51962 3.65307 3.5255C3.47678 3.60973 3.30636 3.70375 3.13986 3.80365C1.89993 4.548 0.934227 5.70371 0.43081 7.08076C0.303487 7.43139 0.203586 7.79769 0.138945 8.17574C0.0762629 7.81923 0.0449219 7.4549 0.0449219 7.08076C0.0449219 6.70663 0.0762629 6.34228 0.138945 5.98578C0.595351 3.34333 2.67954 1.25719 5.32199 0.800781C5.70004 0.865422 6.06438 0.96532 6.41697 1.09264C7.79402 1.59606 8.94777 2.56175 9.69408 3.80365C10.2582 4.74388 10.5873 5.84083 10.5991 7.01612C10.5991 6.99849 10.5991 6.98086 10.5991 6.96323L10.5462 6.92601Z" fill="url(#paint12_linear_7539_18004)"/>
<path d="M7.45992 13.3253C7.10537 13.386 6.73907 13.4193 6.36494 13.4193C5.9908 13.4193 5.62646 13.388 5.26996 13.3253C2.62751 12.867 0.545278 10.7828 0.0869141 8.14032C0.151555 7.76227 0.251455 7.39597 0.378779 7.04534C0.882196 5.66829 1.8479 4.51258 3.08783 3.76823C3.25433 3.66833 3.42475 3.57626 3.60104 3.49008C3.61475 3.48224 3.62847 3.47637 3.64218 3.47049C3.69311 3.44699 3.74208 3.42347 3.79301 3.40193C3.80672 3.39605 3.82043 3.39018 3.83414 3.3843C3.84981 3.37647 3.86744 3.37058 3.88311 3.36275C3.91249 3.351 3.93992 3.33924 3.9693 3.32749C3.98105 3.32357 3.99085 3.31965 4.0026 3.31378C4.02219 3.30594 4.04178 3.29811 4.06136 3.29027C4.07312 3.28635 4.08291 3.28244 4.09466 3.27852C4.10446 3.2746 4.11425 3.27069 4.12209 3.26873C4.16126 3.25502 4.20044 3.23935 4.23962 3.22564C4.24941 3.22172 4.25921 3.2178 4.269 3.21584C4.28075 3.21192 4.29446 3.208 4.30622 3.20408C4.32189 3.19821 4.33756 3.1943 4.35323 3.18842C4.3689 3.18255 4.38653 3.17667 4.4022 3.17275C4.41787 3.16687 4.4355 3.16295 4.45117 3.15707C4.45117 3.15707 4.45117 3.15707 4.45313 3.15707C4.4688 3.15316 4.48447 3.14728 4.5021 3.1414C4.51973 3.13552 4.5354 3.13161 4.55303 3.12574C4.57066 3.11986 4.58633 3.11594 4.60396 3.11203C4.62159 3.10811 4.63726 3.10223 4.65489 3.09831C4.68819 3.08852 4.72345 3.08068 4.75675 3.07089C4.77437 3.06697 4.79005 3.06305 4.80768 3.05717C4.83902 3.04934 4.8684 3.0415 4.89974 3.03563C4.92912 3.02779 4.9585 3.02192 4.98789 3.01604C4.98789 3.01604 4.98985 3.01604 4.99181 3.01604C5.02119 3.01017 5.04861 3.00429 5.07799 2.99841C5.10542 2.99253 5.1348 2.98666 5.16222 2.98079C5.17397 2.97883 5.18377 2.97686 5.19552 2.97491C5.20727 2.97295 5.21903 2.97099 5.22882 2.96903C5.25037 2.96512 5.27192 2.96119 5.29346 2.95727C5.33656 2.94944 5.37965 2.94356 5.42471 2.93573C5.42666 2.93573 5.42862 2.93573 5.43058 2.93573C5.45017 2.93377 5.46976 2.92985 5.4913 2.9279C5.51285 2.92594 5.5344 2.92202 5.5579 2.92006C5.57945 2.91811 5.601 2.91418 5.6245 2.91222C5.6676 2.9083 5.71265 2.90243 5.7577 2.89851C5.93596 2.88284 6.11617 2.87305 6.29834 2.87109C4.04178 2.90635 2.21811 4.73001 2.18285 6.98853C2.18285 6.98853 2.18285 7.00225 2.18285 7.00812C2.18285 7.0238 2.18285 7.03946 2.18285 7.05317C2.18285 7.06689 2.18285 7.08451 2.18285 7.09822C2.18285 7.10606 2.18285 7.11194 2.18285 7.11782C2.19461 8.29115 2.52369 9.39004 3.08783 10.3303C3.83218 11.5702 4.98789 12.5359 6.36298 13.0413C6.71361 13.1706 7.07991 13.2685 7.45796 13.3332L7.45992 13.3253Z" fill="url(#paint13_linear_7539_18004)"/>
<path d="M12.7377 7.04421C12.7377 7.41835 12.7064 7.78268 12.6437 8.13919C12.1873 10.7816 10.1031 12.8678 7.46066 13.3242C7.0826 13.2596 6.71826 13.1596 6.36567 13.0323C4.98862 12.5289 3.83487 11.5632 3.09052 10.3213C2.52638 9.38108 2.1973 8.28414 2.18555 7.10885C2.22081 9.36737 4.04447 11.191 6.30103 11.2263C6.30103 11.2263 6.31474 11.2263 6.32062 11.2263C6.33629 11.2263 6.35196 11.2263 6.36567 11.2263C6.37938 11.2263 6.39701 11.2263 6.41073 11.2263C6.4166 11.2263 6.42444 11.2263 6.43031 11.2263C7.60365 11.2145 8.70059 10.8855 9.64082 10.3213C10.8808 9.57697 11.8465 8.42126 12.3499 7.04225C12.4792 6.69162 12.5771 6.32532 12.6417 5.94727C12.7025 6.30377 12.7358 6.66812 12.7358 7.04225L12.7377 7.04421Z" fill="url(#paint14_linear_7539_18004)"/>
</g>
<path d="M16.3232 13.3093H19.0205V9.0547L16.3232 6.36719V13.3093Z" fill="#111111"/>
<path d="M23.9156 7.48197L16.9932 0.584961H16.3232V0.91012V2.11676V3.71908L19.0205 6.40657L20.8677 8.24591L24.0645 11.429L25.9685 13.3271H26.6129V0.653515H23.9156V7.48197Z" fill="#111111"/>
<path d="M33.853 3.29205H38.1644H40.8813H45.3748V0.584961H33.853V3.29205Z" fill="#111111"/>
<path d="M40.8824 5.17969H38.1655V13.3264H40.8824V5.17969Z" fill="#111111"/>
<path d="M57.569 5.18526H51.673V0.583984H48.9502V13.3261H51.673V7.89626H57.569V13.3261H60.2898V0.583984H57.569V5.18526Z" fill="#111111"/>
<path d="M75.2925 0.584961H63.8648L63.8628 1.09229V3.29205H75.2925V0.584961Z" fill="#111111"/>
<path d="M66.5816 10.6194V7.88292H74.1525V5.17778H66.5816L63.8648 5.16016V10.6194L63.8628 11.1267V13.3265H75.2925V10.6194H66.5816Z" fill="#111111"/>
<path d="M97.3966 7.88292H104.967V5.17778H97.3966L94.6797 5.16016V10.6194L94.6777 11.1267V13.3265H106.107V10.6194H97.3966V7.88292Z" fill="#111111"/>
<path d="M94.6777 1.09229V3.29205H106.107V0.584961H94.6797L94.6777 1.09229Z" fill="#111111"/>
<path d="M113.558 3.28912H117.809C118.218 3.42819 118.514 3.81603 118.514 4.27244H121.172C121.172 3.9316 121.125 3.60253 121.039 3.28912C120.608 1.72989 119.172 0.583984 117.47 0.583984H113.558C112.171 0.583984 110.88 1.3303 110.191 2.53105C109.858 3.11087 109.682 3.77294 109.682 4.44678C109.682 5.12061 109.858 5.7827 110.191 6.36251C110.342 6.62303 110.52 6.862 110.722 7.07747C111.447 7.85121 112.473 8.30958 113.56 8.30958H117.231C117.871 8.30958 118.393 8.82866 118.393 9.46528C118.393 10.1019 117.871 10.621 117.231 10.621H113.047C112.638 10.4819 112.342 10.0941 112.342 9.63765H109.684C109.684 9.97849 109.731 10.3076 109.817 10.621C110.248 12.1802 111.684 13.3261 113.386 13.3261H117.233C118.62 13.3261 119.909 12.5798 120.6 11.381C120.933 10.8012 121.109 10.1391 121.109 9.46528C121.109 8.79144 120.933 8.12937 120.6 7.54955C119.911 6.3488 118.62 5.60445 117.233 5.60445H113.562C112.922 5.60445 112.4 5.08535 112.4 4.44874C112.4 3.81212 112.922 3.29303 113.562 3.29303L113.558 3.28912Z" fill="#111111"/>
<path d="M127.465 0.584961H124.748V6.29688L127.465 3.59175V0.584961Z" fill="#111111"/>
<path d="M136.131 12.4593L130.605 6.95504L136.129 1.45076L136.999 0.584961H133.155L129.118 4.60642L129.122 4.61034L124.748 8.96676V13.3271H127.465V10.0833L128.683 8.86881L133.008 13.1782L133.157 13.3271H137L136.131 12.4593Z" fill="#111111"/>
<path d="M16.3232 13.3093H19.0205V9.0547L16.3232 6.36719V13.3093Z" fill="url(#paint15_linear_7539_18004)"/>
<path d="M23.9156 7.48197L16.9932 0.584961H16.3232V0.91012V2.11676V3.71908L19.0205 6.40657L20.8677 8.24591L24.0645 11.429L25.9685 13.3271H26.6129V0.653515H23.9156V7.48197Z" fill="url(#paint16_linear_7539_18004)"/>
<path d="M33.853 3.29205H38.1644H40.8813H45.3748V0.584961H33.853V3.29205Z" fill="url(#paint17_linear_7539_18004)"/>
<path d="M40.8824 5.17969H38.1655V13.3264H40.8824V5.17969Z" fill="url(#paint18_linear_7539_18004)"/>
<path d="M57.569 5.18526H51.673V0.583984H48.9502V13.3261H51.673V7.89626H57.569V13.3261H60.2898V0.583984H57.569V5.18526Z" fill="url(#paint19_linear_7539_18004)"/>
<path d="M75.2925 0.584961H63.8648L63.8628 1.09229V3.29205H75.2925V0.584961Z" fill="url(#paint20_linear_7539_18004)"/>
<path d="M66.5816 10.6194V7.88292H74.1525V5.17778H66.5816L63.8648 5.16016V10.6194L63.8628 11.1267V13.3265H75.2925V10.6194H66.5816Z" fill="url(#paint21_linear_7539_18004)"/>
<path d="M97.3966 7.88292H104.967V5.17778H97.3966L94.6797 5.16016V10.6194L94.6777 11.1267V13.3265H106.107V10.6194H97.3966V7.88292Z" fill="url(#paint22_linear_7539_18004)"/>
<path d="M94.6777 1.09229V3.29205H106.107V0.584961H94.6797L94.6777 1.09229Z" fill="url(#paint23_linear_7539_18004)"/>
<path d="M113.558 3.28912H117.809C118.218 3.42819 118.514 3.81603 118.514 4.27244H121.172C121.172 3.9316 121.125 3.60253 121.039 3.28912C120.608 1.72989 119.172 0.583984 117.47 0.583984H113.558C112.171 0.583984 110.88 1.3303 110.191 2.53105C109.858 3.11087 109.682 3.77294 109.682 4.44678C109.682 5.12061 109.858 5.7827 110.191 6.36251C110.342 6.62303 110.52 6.862 110.722 7.07747C111.447 7.85121 112.473 8.30958 113.56 8.30958H117.231C117.871 8.30958 118.393 8.82866 118.393 9.46528C118.393 10.1019 117.871 10.621 117.231 10.621H113.047C112.638 10.4819 112.342 10.0941 112.342 9.63765H109.684C109.684 9.97849 109.731 10.3076 109.817 10.621C110.248 12.1802 111.684 13.3261 113.386 13.3261H117.233C118.62 13.3261 119.909 12.5798 120.6 11.381C120.933 10.8012 121.109 10.1391 121.109 9.46528C121.109 8.79144 120.933 8.12937 120.6 7.54955C119.911 6.3488 118.62 5.60445 117.233 5.60445H113.562C112.922 5.60445 112.4 5.08535 112.4 4.44874C112.4 3.81212 112.922 3.29303 113.562 3.29303L113.558 3.28912Z" fill="url(#paint24_linear_7539_18004)"/>
<path d="M127.465 0.584961H124.748V6.29688L127.465 3.59175V0.584961Z" fill="url(#paint25_linear_7539_18004)"/>
<path d="M136.131 12.4593L130.605 6.95504L136.129 1.45076L136.999 0.584961H133.155L129.118 4.60642L129.122 4.61034L124.748 8.96676V13.3271H127.465V10.0833L128.683 8.86881L133.008 13.1782L133.157 13.3271H137L136.131 12.4593Z" fill="url(#paint26_linear_7539_18004)"/>
<g clip-path="url(#clip0_7539_18004)">
<path d="M152.11 4.93822C150.971 3.79889 149.27 3.79889 148.131 4.93822C146.991 6.07754 146.991 7.92415 148.131 9.06348C149.27 10.2028 150.971 10.2028 152.11 9.06348C152.338 8.83561 152.708 8.83561 152.936 9.06348C153.164 9.29134 153.164 9.66139 152.936 9.88926C151.341 11.4843 148.902 11.4843 147.307 9.88926C145.712 8.29421 145.712 5.70931 147.307 4.11426C148.902 2.51921 151.341 2.51921 152.936 4.11426C153.164 4.34212 153.164 4.71217 152.936 4.94004C152.708 5.1679 152.338 5.1679 152.11 4.94004V4.93822Z" fill="#1B94D2"/>
<path fill-rule="evenodd" clip-rule="evenodd" d="M150 12.444C153.006 12.444 155.444 10.0064 155.444 6.99957C155.444 3.99268 153.006 1.55512 150 1.55512C146.993 1.55512 144.555 3.99268 144.555 6.99957C144.555 10.0064 146.993 12.444 150 12.444ZM150 13.2218C153.436 13.2218 156.222 10.436 156.222 6.99957C156.222 3.56313 153.436 0.777344 150 0.777344C146.563 0.777344 143.777 3.56313 143.777 6.99957C143.777 10.436 146.563 13.2218 150 13.2218Z" fill="#1B94D2"/>
</g>
<defs>
<linearGradient id="paint0_linear_7539_18004" x1="82.5415" y1="6.95443" x2="84.2809" y2="6.95443" gradientUnits="userSpaceOnUse">
<stop stop-color="#005989"/>
<stop offset="0.1" stop-color="#006799"/>
<stop offset="0.35" stop-color="#0086BD"/>
<stop offset="0.55" stop-color="#0099D3"/>
<stop offset="0.68" stop-color="#00A0DC"/>
<stop offset="0.69" stop-color="#00A1DD"/>
<stop offset="0.88" stop-color="#00B7EC"/>
<stop offset="1" stop-color="#00C0F2"/>
</linearGradient>
<linearGradient id="paint1_linear_7539_18004" x1="86.2823" y1="6.95443" x2="83.0091" y2="6.95443" gradientUnits="userSpaceOnUse">
<stop stop-color="#005989"/>
<stop offset="0.28" stop-color="#007FAF"/>
<stop offset="0.59" stop-color="#00A2D3"/>
<stop offset="0.84" stop-color="#00B8E9"/>
<stop offset="1" stop-color="#00C0F2"/>
</linearGradient>
<linearGradient id="paint2_linear_7539_18004" x1="78.6286" y1="6.23285" x2="87.3806" y2="3.38865" gradientUnits="userSpaceOnUse">
<stop stop-color="#005989"/>
<stop offset="0.07" stop-color="#006799"/>
<stop offset="0.26" stop-color="#0086BD"/>
<stop offset="0.4" stop-color="#0099D3"/>
<stop offset="0.5" stop-color="#00A0DC"/>
<stop offset="0.67" stop-color="#00A4DF"/>
<stop offset="0.87" stop-color="#00B2E8"/>
<stop offset="1" stop-color="#00C0F2"/>
</linearGradient>
<linearGradient id="paint3_linear_7539_18004" x1="81.029" y1="4.28954" x2="85.4167" y2="15.1512" gradientUnits="userSpaceOnUse">
<stop stop-color="#00C0F2"/>
<stop offset="0.02" stop-color="#00BEF0"/>
<stop offset="0.24" stop-color="#00A8E1"/>
<stop offset="0.39" stop-color="#00A0DC"/>
<stop offset="0.48" stop-color="#0091CB"/>
<stop offset="0.7" stop-color="#0072A7"/>
<stop offset="0.88" stop-color="#005F91"/>
<stop offset="1" stop-color="#005989"/>
</linearGradient>
<linearGradient id="paint4_linear_7539_18004" x1="82.0346" y1="10.2902" x2="91.5936" y2="8.94648" gradientUnits="userSpaceOnUse">
<stop stop-color="#00C0F2"/>
<stop offset="0.02" stop-color="#00BEF0"/>
<stop offset="0.24" stop-color="#00A8E1"/>
<stop offset="0.39" stop-color="#00A0DC"/>
<stop offset="0.48" stop-color="#0091CB"/>
<stop offset="0.7" stop-color="#0072A7"/>
<stop offset="0.88" stop-color="#005F91"/>
<stop offset="1" stop-color="#005989"/>
</linearGradient>
<linearGradient id="paint5_linear_7539_18004" x1="88.3927" y1="9.89525" x2="85.1215" y2="-0.171138" gradientUnits="userSpaceOnUse">
<stop stop-color="#00C0F2"/>
<stop offset="0.02" stop-color="#00BEF0"/>
<stop offset="0.24" stop-color="#00A8E1"/>
<stop offset="0.39" stop-color="#00A0DC"/>
<stop offset="0.48" stop-color="#0091CB"/>
<stop offset="0.7" stop-color="#0072A7"/>
<stop offset="0.88" stop-color="#005F91"/>
<stop offset="1" stop-color="#005989"/>
</linearGradient>
<linearGradient id="paint6_linear_7539_18004" x1="4.17431" y1="7.04623" x2="5.91374" y2="7.04623" gradientUnits="userSpaceOnUse">
<stop stop-color="#005989"/>
<stop offset="0.1" stop-color="#006799"/>
<stop offset="0.35" stop-color="#0086BD"/>
<stop offset="0.55" stop-color="#0099D3"/>
<stop offset="0.68" stop-color="#00A0DC"/>
<stop offset="0.69" stop-color="#00A1DD"/>
<stop offset="0.88" stop-color="#00B7EC"/>
<stop offset="1" stop-color="#00C0F2"/>
</linearGradient>
<linearGradient id="paint7_linear_7539_18004" x1="7.91313" y1="7.04623" x2="4.63994" y2="7.04623" gradientUnits="userSpaceOnUse">
<stop stop-color="#005989"/>
<stop offset="0.28" stop-color="#007FAF"/>
<stop offset="0.59" stop-color="#00A2D3"/>
<stop offset="0.84" stop-color="#00B8E9"/>
<stop offset="1" stop-color="#00C0F2"/>
</linearGradient>
<linearGradient id="paint8_linear_7539_18004" x1="0.260886" y1="6.3227" x2="9.0129" y2="3.47848" gradientUnits="userSpaceOnUse">
<stop stop-color="#005989"/>
<stop offset="0.07" stop-color="#006799"/>
<stop offset="0.26" stop-color="#0086BD"/>
<stop offset="0.4" stop-color="#0099D3"/>
<stop offset="0.5" stop-color="#00A0DC"/>
<stop offset="0.67" stop-color="#00A4DF"/>
<stop offset="0.87" stop-color="#00B2E8"/>
<stop offset="1" stop-color="#00C0F2"/>
</linearGradient>
<linearGradient id="paint9_linear_7539_18004" x1="2.6613" y1="4.37743" x2="7.05102" y2="15.2391" gradientUnits="userSpaceOnUse">
<stop stop-color="#00C0F2"/>
<stop offset="0.02" stop-color="#00BEF0"/>
<stop offset="0.24" stop-color="#00A8E1"/>
<stop offset="0.39" stop-color="#00A0DC"/>
<stop offset="0.48" stop-color="#0091CB"/>
<stop offset="0.7" stop-color="#0072A7"/>
<stop offset="0.88" stop-color="#005F91"/>
<stop offset="1" stop-color="#005989"/>
</linearGradient>
<linearGradient id="paint10_linear_7539_18004" x1="3.66691" y1="10.3801" x2="13.226" y2="9.03633" gradientUnits="userSpaceOnUse">
<stop stop-color="#00C0F2"/>
<stop offset="0.02" stop-color="#00BEF0"/>
<stop offset="0.24" stop-color="#00A8E1"/>
<stop offset="0.39" stop-color="#00A0DC"/>
<stop offset="0.48" stop-color="#0091CB"/>
<stop offset="0.7" stop-color="#0072A7"/>
<stop offset="0.88" stop-color="#005F91"/>
<stop offset="1" stop-color="#005989"/>
</linearGradient>
<linearGradient id="paint11_linear_7539_18004" x1="10.0231" y1="9.98509" x2="6.75383" y2="-0.0812946" gradientUnits="userSpaceOnUse">
<stop stop-color="#00C0F2"/>
<stop offset="0.02" stop-color="#00BEF0"/>
<stop offset="0.24" stop-color="#00A8E1"/>
<stop offset="0.39" stop-color="#00A0DC"/>
<stop offset="0.48" stop-color="#0091CB"/>
<stop offset="0.7" stop-color="#0072A7"/>
<stop offset="0.88" stop-color="#005F91"/>
<stop offset="1" stop-color="#005989"/>
</linearGradient>
<linearGradient id="paint12_linear_7539_18004" x1="0.262351" y1="6.3227" x2="9.01437" y2="3.47848" gradientUnits="userSpaceOnUse">
<stop stop-color="#005989"/>
<stop offset="0.07" stop-color="#006799"/>
<stop offset="0.26" stop-color="#0086BD"/>
<stop offset="0.4" stop-color="#0099D3"/>
<stop offset="0.5" stop-color="#00A0DC"/>
<stop offset="0.67" stop-color="#00A4DF"/>
<stop offset="0.87" stop-color="#00B2E8"/>
<stop offset="1" stop-color="#00C0F2"/>
</linearGradient>
<linearGradient id="paint13_linear_7539_18004" x1="2.66277" y1="4.37743" x2="7.05248" y2="15.2391" gradientUnits="userSpaceOnUse">
<stop stop-color="#00C0F2"/>
<stop offset="0.02" stop-color="#00BEF0"/>
<stop offset="0.24" stop-color="#00A8E1"/>
<stop offset="0.39" stop-color="#00A0DC"/>
<stop offset="0.48" stop-color="#0091CB"/>
<stop offset="0.7" stop-color="#0072A7"/>
<stop offset="0.88" stop-color="#005F91"/>
<stop offset="1" stop-color="#005989"/>
</linearGradient>
<linearGradient id="paint14_linear_7539_18004" x1="3.66838" y1="10.3801" x2="13.2274" y2="9.03633" gradientUnits="userSpaceOnUse">
<stop stop-color="#00C0F2"/>
<stop offset="0.02" stop-color="#00BEF0"/>
<stop offset="0.24" stop-color="#00A8E1"/>
<stop offset="0.39" stop-color="#00A0DC"/>
<stop offset="0.48" stop-color="#0091CB"/>
<stop offset="0.7" stop-color="#0072A7"/>
<stop offset="0.88" stop-color="#005F91"/>
<stop offset="1" stop-color="#005989"/>
</linearGradient>
<linearGradient id="paint15_linear_7539_18004" x1="75.9243" y1="17.4776" x2="77.3974" y2="-3.58363" gradientUnits="userSpaceOnUse">
<stop stop-color="#005989"/>
<stop offset="0.1" stop-color="#006799"/>
<stop offset="0.35" stop-color="#0086BD"/>
<stop offset="0.55" stop-color="#0099D3"/>
<stop offset="0.68" stop-color="#00A0DC"/>
<stop offset="0.69" stop-color="#00A1DD"/>
<stop offset="0.88" stop-color="#00B7EC"/>
<stop offset="1" stop-color="#00C0F2"/>
</linearGradient>
<linearGradient id="paint16_linear_7539_18004" x1="75.9243" y1="17.4778" x2="77.3974" y2="-3.58341" gradientUnits="userSpaceOnUse">
<stop stop-color="#005989"/>
<stop offset="0.1" stop-color="#006799"/>
<stop offset="0.35" stop-color="#0086BD"/>
<stop offset="0.55" stop-color="#0099D3"/>
<stop offset="0.68" stop-color="#00A0DC"/>
<stop offset="0.69" stop-color="#00A1DD"/>
<stop offset="0.88" stop-color="#00B7EC"/>
<stop offset="1" stop-color="#00C0F2"/>
</linearGradient>
<linearGradient id="paint17_linear_7539_18004" x1="75.9227" y1="17.4779" x2="77.3957" y2="-3.58342" gradientUnits="userSpaceOnUse">
<stop stop-color="#005989"/>
<stop offset="0.1" stop-color="#006799"/>
<stop offset="0.35" stop-color="#0086BD"/>
<stop offset="0.55" stop-color="#0099D3"/>
<stop offset="0.68" stop-color="#00A0DC"/>
<stop offset="0.69" stop-color="#00A1DD"/>
<stop offset="0.88" stop-color="#00B7EC"/>
<stop offset="1" stop-color="#00C0F2"/>
</linearGradient>
<linearGradient id="paint18_linear_7539_18004" x1="75.9238" y1="17.4791" x2="77.3968" y2="-3.58213" gradientUnits="userSpaceOnUse">
<stop stop-color="#005989"/>
<stop offset="0.1" stop-color="#006799"/>
<stop offset="0.35" stop-color="#0086BD"/>
<stop offset="0.55" stop-color="#0099D3"/>
<stop offset="0.68" stop-color="#00A0DC"/>
<stop offset="0.69" stop-color="#00A1DD"/>
<stop offset="0.88" stop-color="#00B7EC"/>
<stop offset="1" stop-color="#00C0F2"/>
</linearGradient>
<linearGradient id="paint19_linear_7539_18004" x1="75.9232" y1="17.4769" x2="77.3962" y2="-3.58439" gradientUnits="userSpaceOnUse">
<stop stop-color="#005989"/>
<stop offset="0.1" stop-color="#006799"/>
<stop offset="0.35" stop-color="#0086BD"/>
<stop offset="0.55" stop-color="#0099D3"/>
<stop offset="0.68" stop-color="#00A0DC"/>
<stop offset="0.69" stop-color="#00A1DD"/>
<stop offset="0.88" stop-color="#00B7EC"/>
<stop offset="1" stop-color="#00C0F2"/>
</linearGradient>
<linearGradient id="paint20_linear_7539_18004" x1="75.9213" y1="17.4779" x2="77.3943" y2="-3.58341" gradientUnits="userSpaceOnUse">
<stop stop-color="#005989"/>
<stop offset="0.1" stop-color="#006799"/>
<stop offset="0.35" stop-color="#0086BD"/>
<stop offset="0.55" stop-color="#0099D3"/>
<stop offset="0.68" stop-color="#00A0DC"/>
<stop offset="0.69" stop-color="#00A1DD"/>
<stop offset="0.88" stop-color="#00B7EC"/>
<stop offset="1" stop-color="#00C0F2"/>
</linearGradient>
<linearGradient id="paint21_linear_7539_18004" x1="75.9213" y1="17.4772" x2="77.3943" y2="-3.58403" gradientUnits="userSpaceOnUse">
<stop stop-color="#005989"/>
<stop offset="0.1" stop-color="#006799"/>
<stop offset="0.35" stop-color="#0086BD"/>
<stop offset="0.55" stop-color="#0099D3"/>
<stop offset="0.68" stop-color="#00A0DC"/>
<stop offset="0.69" stop-color="#00A1DD"/>
<stop offset="0.88" stop-color="#00B7EC"/>
<stop offset="1" stop-color="#00C0F2"/>
</linearGradient>
<linearGradient id="paint22_linear_7539_18004" x1="75.9259" y1="17.4772" x2="77.399" y2="-3.58403" gradientUnits="userSpaceOnUse">
<stop stop-color="#005989"/>
<stop offset="0.1" stop-color="#006799"/>
<stop offset="0.35" stop-color="#0086BD"/>
<stop offset="0.55" stop-color="#0099D3"/>
<stop offset="0.68" stop-color="#00A0DC"/>
<stop offset="0.69" stop-color="#00A1DD"/>
<stop offset="0.88" stop-color="#00B7EC"/>
<stop offset="1" stop-color="#00C0F2"/>
</linearGradient>
<linearGradient id="paint23_linear_7539_18004" x1="75.9259" y1="17.4779" x2="77.399" y2="-3.58341" gradientUnits="userSpaceOnUse">
<stop stop-color="#005989"/>
<stop offset="0.1" stop-color="#006799"/>
<stop offset="0.35" stop-color="#0086BD"/>
<stop offset="0.55" stop-color="#0099D3"/>
<stop offset="0.68" stop-color="#00A0DC"/>
<stop offset="0.69" stop-color="#00A1DD"/>
<stop offset="0.88" stop-color="#00B7EC"/>
<stop offset="1" stop-color="#00C0F2"/>
</linearGradient>
<linearGradient id="paint24_linear_7539_18004" x1="75.9253" y1="17.4769" x2="77.3983" y2="-3.58439" gradientUnits="userSpaceOnUse">
<stop stop-color="#005989"/>
<stop offset="0.1" stop-color="#006799"/>
<stop offset="0.35" stop-color="#0086BD"/>
<stop offset="0.55" stop-color="#0099D3"/>
<stop offset="0.68" stop-color="#00A0DC"/>
<stop offset="0.69" stop-color="#00A1DD"/>
<stop offset="0.88" stop-color="#00B7EC"/>
<stop offset="1" stop-color="#00C0F2"/>
</linearGradient>
<linearGradient id="paint25_linear_7539_18004" x1="75.9264" y1="17.4778" x2="77.3994" y2="-3.58341" gradientUnits="userSpaceOnUse">
<stop stop-color="#005989"/>
<stop offset="0.1" stop-color="#006799"/>
<stop offset="0.35" stop-color="#0086BD"/>
<stop offset="0.55" stop-color="#0099D3"/>
<stop offset="0.68" stop-color="#00A0DC"/>
<stop offset="0.69" stop-color="#00A1DD"/>
<stop offset="0.88" stop-color="#00B7EC"/>
<stop offset="1" stop-color="#00C0F2"/>
</linearGradient>
<linearGradient id="paint26_linear_7539_18004" x1="75.9263" y1="17.4778" x2="77.3994" y2="-3.58341" gradientUnits="userSpaceOnUse">
<stop stop-color="#005989"/>
<stop offset="0.1" stop-color="#006799"/>
<stop offset="0.35" stop-color="#0086BD"/>
<stop offset="0.55" stop-color="#0099D3"/>
<stop offset="0.68" stop-color="#00A0DC"/>
<stop offset="0.69" stop-color="#00A1DD"/>
<stop offset="0.88" stop-color="#00B7EC"/>
<stop offset="1" stop-color="#00C0F2"/>
</linearGradient>
<clipPath id="clip0_7539_18004">
<rect width="14" height="14" fill="white" transform="translate(143)"/>
</clipPath>
</defs>
</svg>
