<svg width="24" height="24" viewBox="0 0 24 24" fill="none" xmlns="http://www.w3.org/2000/svg">
<path d="M10.9025 2.48958C11.236 2.29619 11.6146 2.19434 12 2.19434C12.3855 2.19434 12.7641 2.29619 13.0975 2.48958L19.3513 6.11707C20.3888 6.71832 20.3888 8.21707 19.3513 8.81957L13.0975 12.4471C12.7641 12.6405 12.3855 12.7423 12 12.7423C11.6146 12.7423 11.236 12.6405 10.9025 12.4471L4.64878 8.81957C4.41246 8.68193 4.21637 8.48471 4.08008 8.24761C3.94379 8.01051 3.87207 7.74181 3.87207 7.46832C3.87207 7.19484 3.94379 6.92614 4.08008 6.68904C4.21637 6.45194 4.41246 6.25472 4.64878 6.11707L10.9025 2.48958ZM12.1563 4.11208C12.1089 4.0844 12.0549 4.06982 12 4.06982C11.9451 4.06982 11.8912 4.0844 11.8438 4.11208L6.05628 7.46832L11.8438 10.8246C11.8912 10.8522 11.9451 10.8668 12 10.8668C12.0549 10.8668 12.1089 10.8522 12.1563 10.8246L17.9438 7.46832L12.1563 4.11208ZM4.00128 11.7358C4.06299 11.6293 4.14509 11.5359 4.24288 11.4611C4.34067 11.3863 4.45224 11.3315 4.57122 11.2998C4.6902 11.2681 4.81425 11.2602 4.9363 11.2764C5.05835 11.2927 5.17599 11.3328 5.28253 11.3946L11.8438 15.1996C11.8912 15.2272 11.9451 15.2418 12 15.2418C12.0549 15.2418 12.1089 15.2272 12.1563 15.1996L18.7175 11.3946C18.9327 11.2699 19.1885 11.2358 19.4288 11.2998C19.6691 11.3638 19.8741 11.5207 19.9988 11.7358C20.1234 11.951 20.1575 12.2068 20.0935 12.4471C20.0295 12.6874 19.8727 12.8924 19.6575 13.0171L13.0975 16.8221C12.7641 17.0155 12.3855 17.1173 12 17.1173C11.6146 17.1173 11.236 17.0155 10.9025 16.8221L4.34253 13.0171C4.23588 12.9555 4.14242 12.8734 4.06749 12.7757C3.99255 12.678 3.93761 12.5664 3.9058 12.4474C3.874 12.3284 3.86595 12.2043 3.88211 12.0822C3.89828 11.9601 3.9396 11.8424 4.00128 11.7358ZM4.00128 16.1108C4.06299 16.0043 4.14509 15.9109 4.24288 15.8361C4.34067 15.7613 4.45224 15.7065 4.57122 15.6748C4.6902 15.6431 4.81425 15.6352 4.9363 15.6514C5.05835 15.6677 5.17599 15.7078 5.28253 15.7696L11.8438 19.5746C11.8912 19.6022 11.9451 19.6168 12 19.6168C12.0549 19.6168 12.1089 19.6022 12.1563 19.5746L18.7175 15.7696C18.9327 15.6449 19.1885 15.6108 19.4288 15.6748C19.6691 15.7388 19.8741 15.8957 19.9988 16.1108C20.1234 16.326 20.1575 16.5818 20.0935 16.8221C20.0295 17.0624 19.8727 17.2674 19.6575 17.3921L13.0975 21.1971C12.7641 21.3905 12.3855 21.4923 12 21.4923C11.6146 21.4923 11.236 21.3905 10.9025 21.1971L4.34253 17.3921C4.23599 17.3304 4.14264 17.2483 4.06783 17.1505C3.99302 17.0527 3.93821 16.9411 3.90652 16.8221C3.87483 16.7032 3.86689 16.5791 3.88315 16.4571C3.89941 16.335 3.93955 16.2174 4.00128 16.1108Z" fill="white"/>
</svg>
