<svg width="32" height="32" viewBox="0 0 32 32" fill="none" xmlns="http://www.w3.org/2000/svg">
<rect width="32" height="32" rx="16" fill="url(#paint0_radial_7532_23028)"/>
<rect width="32" height="32" rx="16" fill="url(#paint1_radial_7532_23028)" fill-opacity="0.8"/>
<rect width="32" height="32" rx="16" fill="url(#paint2_linear_7532_23028)" fill-opacity="0.8"/>
<path fill-rule="evenodd" clip-rule="evenodd" d="M13.8671 19.1988C10.9215 19.1988 8.53372 21.5866 8.53372 24.5321V25.5988C8.53372 26.1879 8.05616 26.6654 7.46706 26.6654C6.87795 26.6654 6.40039 26.1879 6.40039 25.5988V24.5321C6.40039 20.4084 9.74333 17.0654 13.8671 17.0654H18.1337C22.2574 17.0654 25.6004 20.4084 25.6004 24.5321V25.5988C25.6004 26.1879 25.1228 26.6654 24.5337 26.6654C23.9446 26.6654 23.4671 26.1879 23.4671 25.5988V24.5321C23.4671 21.5866 21.0792 19.1988 18.1337 19.1988H13.8671Z" fill="white"/>
<path fill-rule="evenodd" clip-rule="evenodd" d="M16.0003 7.46634C14.233 7.46634 12.8003 8.89903 12.8003 10.6663C12.8003 12.4337 14.233 13.8663 16.0003 13.8663C17.7676 13.8663 19.2003 12.4336 19.2003 10.6663C19.2003 8.89904 17.7676 7.46634 16.0003 7.46634ZM10.667 10.6663C10.667 7.72082 13.0548 5.33301 16.0003 5.33301C18.9458 5.33301 21.3337 7.72081 21.3337 10.6663C21.3337 13.6119 18.9458 15.9997 16.0003 15.9997C13.0548 15.9997 10.667 13.6119 10.667 10.6663Z" fill="white"/>
<defs>
<radialGradient id="paint0_radial_7532_23028" cx="0" cy="0" r="1" gradientUnits="userSpaceOnUse" gradientTransform="translate(16 32) rotate(-90) scale(16)">
<stop stop-color="#32ADE6" stop-opacity="0.6"/>
<stop offset="1" stop-color="#32ADE6" stop-opacity="0"/>
</radialGradient>
<radialGradient id="paint1_radial_7532_23028" cx="0" cy="0" r="1" gradientUnits="userSpaceOnUse" gradientTransform="translate(16) rotate(90) scale(32)">
<stop stop-color="white" stop-opacity="0.6"/>
<stop offset="1" stop-color="#111111" stop-opacity="0"/>
</radialGradient>
<linearGradient id="paint2_linear_7532_23028" x1="32.9775" y1="-8.47275e-07" x2="15.7641" y2="38.9642" gradientUnits="userSpaceOnUse">
<stop stop-opacity="0.6"/>
<stop offset="1" stop-opacity="0.8"/>
</linearGradient>
</defs>
</svg>
